<svg width="80" height="74" viewBox="0 0 80 74" fill="none" xmlns="http://www.w3.org/2000/svg">
<path d="M35.3254 37.0388C35.3254 46.9898 33.2985 55.9246 30.0917 62.3162C26.8407 68.796 22.6257 72.2377 18.4127 72.2377C14.1997 72.2377 9.98475 68.796 6.73367 62.3162C3.52687 55.9246 1.5 46.9898 1.5 37.0388C1.5 27.0877 3.52687 18.153 6.73367 11.7614C9.98475 5.28155 14.1997 1.83984 18.4127 1.83984C22.6257 1.83984 26.8407 5.28155 30.0917 11.7614C33.2985 18.153 35.3254 27.0877 35.3254 37.0388Z" fill="#FFFFF5" stroke="black" stroke-width="3"/>
<ellipse cx="10.1587" cy="39.5696" rx="10.1587" ry="12.6548" fill="black"/>
<path d="M78.5 37.0388C78.5 46.9898 76.4731 55.9246 73.2663 62.3162C70.0152 68.796 65.8003 72.2377 61.5873 72.2377C57.3743 72.2377 53.1593 68.796 49.9082 62.3162C46.7014 55.9246 44.6746 46.9898 44.6746 37.0388C44.6746 27.0877 46.7014 18.153 49.9082 11.7614C53.1593 5.28155 57.3743 1.83984 61.5873 1.83984C65.8003 1.83984 70.0152 5.28155 73.2663 11.7614C76.4731 18.153 78.5 27.0877 78.5 37.0388Z" fill="#FFFFF5" stroke="black" stroke-width="3"/>
<ellipse cx="53.3333" cy="39.5696" rx="10.1587" ry="12.6548" fill="black"/>
</svg>
