        <svg width="13" height="12" viewBox="0 0 13 12" fill="none" xmlns="http://www.w3.org/2000/svg">
            <path fill-rule="evenodd" clip-rule="evenodd" d="M12.5043 5.88396C12.5043 5.48011 12.4653 5.09178 12.3927 4.71899H6.61084V6.92208H9.91477C9.77245 7.63401 9.33993 8.2372 8.68975 8.64106V10.0701H10.6738C11.8346 9.07857 12.5043 7.61847 12.5043 5.88396Z" fill="#4285F4" />
            <path fill-rule="evenodd" clip-rule="evenodd" d="M6.61059 11.45C8.26814 11.45 9.65779 10.94 10.6735 10.0701L8.6895 8.64108C8.13978 8.9828 7.43657 9.18473 6.61059 9.18473C5.01165 9.18473 3.65827 8.18286 3.17551 6.83667H1.12451V8.3123C2.13467 10.1737 4.21078 11.45 6.61059 11.45Z" fill="#34A853" />
            <path fill-rule="evenodd" clip-rule="evenodd" d="M3.17565 6.83654C3.05287 6.49482 2.98311 6.12979 2.98311 5.75441C2.98311 5.37903 3.05287 5.01401 3.17565 4.67228V3.19666H1.12465C0.70887 3.96554 0.47168 4.83538 0.47168 5.75441C0.47168 6.67344 0.70887 7.54329 1.12465 8.31217L3.17565 6.83654Z" fill="#FBBC05" />
            <path fill-rule="evenodd" clip-rule="evenodd" d="M6.61059 2.3243C7.51192 2.3243 8.32116 2.61166 8.95739 3.17602L10.7182 1.54248C9.65501 0.623445 8.26535 0.059082 6.61059 0.059082C4.21078 0.059082 2.13467 1.33537 1.12451 3.19674L3.17551 4.67236C3.65827 3.32618 5.01165 2.3243 6.61059 2.3243Z" fill="#EA4335" />
        </svg>