<svg width="60" height="68" viewBox="0 0 60 68" fill="none" xmlns="http://www.w3.org/2000/svg">
<g clip-path="url(#clip0_132_337)">
<mask id="mask0_132_337" style="mask-type:luminance" maskUnits="userSpaceOnUse" x="0" y="0" width="60" height="68">
<path d="M60 0H0V68H60V0Z" fill="white"/>
</mask>
<g mask="url(#mask0_132_337)">
<path d="M39.0563 33.4202L29.9999 17.39L20.9436 33.4202L29.9999 49.4503L39.0563 33.4202Z" fill="#FF7AAD"/>
<mask id="mask1_132_337" style="mask-type:luminance" maskUnits="userSpaceOnUse" x="0" y="0" width="60" height="68">
<path d="M60 0H0V68H60V0Z" fill="white"/>
</mask>
<g mask="url(#mask1_132_337)">
<path d="M23.1933 18.4844C24.7256 17.5942 26.292 16.6897 27.9222 16.0955C28.342 15.9372 28.7695 15.8009 29.2029 15.6871C29.4026 15.6361 29.6164 15.5891 29.8242 15.5463C30.032 15.5034 30.2917 15.4625 30.4335 15.4462C30.8121 15.4 31.1931 15.3781 31.5743 15.3809C31.7408 15.3809 31.9066 15.389 32.0718 15.4054L32.2956 15.4278L32.4434 15.4442C32.3195 15.4299 32.4834 15.4442 32.4953 15.4442C32.8415 15.4992 33.1839 15.5769 33.5203 15.6769C33.6801 15.7239 33.8399 15.777 33.9958 15.8342C34.0743 15.8627 34.1522 15.8934 34.2295 15.926L34.3214 15.9628C34.2115 15.9179 34.3993 15.9995 34.4173 16.0077C34.7159 16.1467 35.005 16.3063 35.2824 16.4855C35.4182 16.5733 35.5501 16.6692 35.682 16.7673C35.8138 16.8653 35.6 16.6958 35.7239 16.7999L35.7998 16.8612C35.8737 16.9224 35.9457 16.9878 36.0176 17.0531C36.1355 17.1634 36.2493 17.2777 36.3572 17.3961C36.4112 17.4553 36.4651 17.5166 36.5151 17.5778C36.541 17.6085 36.567 17.6391 36.591 17.6718L36.6369 17.7269C36.599 17.6779 36.599 17.6779 36.6369 17.7269C36.8402 18.0057 37.0156 18.3046 37.1604 18.6192C37.1744 18.6477 37.1863 18.6784 37.2003 18.707C37.2663 18.854 37.1644 18.6028 37.2183 18.7539C37.2443 18.8233 37.2703 18.8928 37.2942 18.9581C37.3542 19.1387 37.4036 19.3228 37.4421 19.5094C37.4641 19.6094 37.482 19.7136 37.496 19.8116C37.482 19.7136 37.506 19.9116 37.506 19.9055C37.506 19.9463 37.506 19.9872 37.506 20.028C37.519 20.2524 37.519 20.4774 37.506 20.7018C37.4854 21.1046 37.4183 21.5034 37.3062 21.8901C37.2032 22.2742 37.0633 22.6469 36.8887 23.0029C36.7263 23.3364 36.54 23.6571 36.3313 23.9625L36.2414 24.0871C36.1534 24.2096 36.3093 24.0034 36.2154 24.1218C36.1215 24.2402 36.0715 24.3015 35.9956 24.3893C35.6889 24.7366 35.3548 25.0575 34.9967 25.3489L34.8608 25.4592C34.7989 25.5082 34.9707 25.3755 34.8748 25.4469L34.8029 25.5021L34.4992 25.7267C34.2874 25.8777 34.0717 26.0227 33.8519 26.1595C33.3944 26.4474 32.9209 26.7088 32.4394 26.9497C32.1917 27.0742 31.9419 27.1927 31.6902 27.307L31.5024 27.3887C31.4784 27.3989 31.3486 27.4561 31.4824 27.3989L31.4065 27.4316L30.983 27.6051C29.8965 28.0389 28.7833 28.399 27.6505 28.6832C27.0978 28.8193 26.5404 28.9411 25.9783 29.0487C25.6986 29.1017 25.4169 29.1487 25.1352 29.1916L24.9354 29.2202H24.8915H24.8455C24.7017 29.2406 24.5598 29.2569 24.416 29.2733C23.4218 29.3958 22.419 29.4293 21.4192 29.3733C21.2034 29.3611 20.9896 29.3406 20.7759 29.3141C20.608 29.2937 20.8618 29.3284 20.7439 29.3141L20.612 29.2937C20.5081 29.2773 20.4122 29.2569 20.3004 29.2365C20.1166 29.1998 19.9328 29.1548 19.7509 29.0997C19.671 29.0752 19.5911 29.0487 19.5112 29.0201C19.4732 29.0058 19.4353 28.9935 19.3973 28.9772L19.3793 28.9731C19.2695 28.9302 19.3793 28.9302 19.4033 28.9731C19.3853 28.9404 19.2315 28.8935 19.2035 28.8731C19.1756 28.8526 19.0757 28.8036 19.0037 28.7669C18.9318 28.7301 18.8879 28.6893 18.8299 28.6485C18.7121 28.5648 18.8939 28.7056 18.8459 28.6628L18.756 28.5852C18.7101 28.5403 18.6641 28.4953 18.6221 28.4463L18.5622 28.3749C18.5083 28.3136 18.6341 28.4872 18.6002 28.4239C18.5862 28.3973 18.5622 28.3708 18.5462 28.3442C18.4967 28.2705 18.4519 28.1934 18.4124 28.1135C18.3744 27.9379 18.3824 28.0543 18.4124 28.1135C18.3987 28.0655 18.382 28.0184 18.3624 27.9726C18.3405 27.8971 18.3265 27.8215 18.3085 27.746C18.2825 27.6357 18.3085 27.9073 18.3085 27.746C18.3085 27.7011 18.3085 27.6562 18.3085 27.6133C18.3196 27.5328 18.3243 27.4515 18.3225 27.3703C18.3464 27.3928 18.2945 27.5316 18.3225 27.4213C18.3234 27.405 18.3234 27.3887 18.3225 27.3723C18.3225 27.3233 18.3444 27.2743 18.3584 27.2274C18.3804 27.1437 18.4104 27.062 18.4383 26.9824C18.4663 26.9027 18.3844 27.0906 18.4184 27.0293C18.4289 27.0095 18.4382 26.989 18.4463 26.9681C18.4703 26.9191 18.4943 26.8701 18.5203 26.8211C18.5642 26.7373 18.6142 26.6557 18.6661 26.576C18.6921 26.5352 18.72 26.4944 18.748 26.4556L18.784 26.4066C18.6981 26.5127 18.8439 26.3188 18.784 26.4066C18.9158 26.2402 19.0565 26.0813 19.2055 25.9308C19.2894 25.8492 19.3733 25.7695 19.4613 25.694C19.5052 25.6532 19.5512 25.6144 19.5971 25.5756C19.6431 25.5368 19.8129 25.4041 19.687 25.5C20.1299 25.1577 20.5974 24.8498 21.0855 24.5792C21.3519 24.4294 21.6256 24.2892 21.9066 24.1586C22.0485 24.0912 22.1903 24.0279 22.3342 23.9544C22.478 23.8809 22.2303 23.9973 22.3781 23.936L22.466 23.8992C22.5566 23.8611 22.6465 23.8244 22.7358 23.789C23.3827 23.5306 24.0422 23.3064 24.7117 23.1172C25.4455 22.9117 26.1867 22.7429 26.9353 22.6109C27.3548 22.5374 27.6485 22.4945 28.0101 22.4516C28.3717 22.4087 28.7653 22.3699 29.1429 22.3454C29.9482 22.289 30.756 22.2794 31.5623 22.3169C32.2854 22.3486 33.006 22.425 33.72 22.5455C34.2515 22.6374 34.7789 22.7497 35.3004 22.8967C35.5827 22.9743 35.8624 23.0621 36.1395 23.1601C36.2793 23.2091 36.4192 23.2622 36.557 23.3173L36.7688 23.4031C36.7948 23.4153 36.8907 23.4582 36.7848 23.4031L36.9106 23.4603C37.526 23.7385 38.1118 24.0806 38.6588 24.4812L38.8586 24.6343C38.7846 24.573 38.8406 24.62 38.8586 24.6343L38.9764 24.7323C39.1163 24.8487 39.2521 24.9712 39.376 25.0957C39.6419 25.3514 39.8914 25.6242 40.1232 25.9125C40.1592 25.9553 40.1931 25.9982 40.2271 26.0431C40.2271 26.0431 40.291 26.1268 40.2431 26.0636C40.301 26.1391 40.355 26.2167 40.4109 26.2963C40.5308 26.4678 40.6447 26.6455 40.7505 26.8272C40.9173 27.1119 41.0674 27.4064 41.2001 27.7092C41.2101 27.7297 41.242 27.8072 41.2001 27.7092C41.218 27.7521 41.234 27.795 41.252 27.8399C41.27 27.8848 41.3079 27.9869 41.3339 28.0604C41.3859 28.2095 41.4338 28.3585 41.4778 28.5096C41.5717 28.8292 41.6457 29.1545 41.6995 29.4836C41.7135 29.5611 41.7235 29.6408 41.7355 29.7204C41.7175 29.5979 41.7355 29.7061 41.7355 29.7388C41.7355 29.7715 41.7455 29.8184 41.7495 29.8572C41.7695 30.0348 41.7814 30.2125 41.7914 30.3901C41.8084 30.7268 41.8084 31.0641 41.7914 31.4008C41.7914 31.5682 41.7695 31.7357 41.7535 31.9011C41.7535 31.9868 41.7335 32.0705 41.7255 32.1542C41.7175 32.2379 41.7455 32.0195 41.7255 32.1808C41.7255 32.2318 41.7115 32.2808 41.7035 32.3319C41.6503 32.6912 41.579 33.0465 41.4898 33.3977C41.4005 33.7489 41.2946 34.1062 41.1721 34.4696C41.0402 34.8514 40.9363 35.1169 40.7985 35.4252C40.1609 36.8799 39.3041 38.2233 38.2592 39.4067C37.7862 39.9405 37.2761 40.4386 36.7328 40.8972L36.549 41.0483L36.4751 41.1075C36.3532 41.2055 36.563 41.0401 36.4391 41.1361C36.3153 41.2321 36.1614 41.3403 36.0196 41.4505C35.7619 41.6363 35.5001 41.816 35.2304 41.9855C34.6637 42.3441 34.0781 42.6706 33.4763 42.9635L33.0448 43.1677C32.9708 43.2024 32.8989 43.2351 32.825 43.2657L32.7391 43.3045C32.855 43.2534 32.6692 43.3331 32.6492 43.3412C32.3575 43.4651 32.0625 43.5815 31.7641 43.6904C31.1448 43.9177 30.5161 44.1158 29.8781 44.2845C29.2788 44.4438 28.6634 44.5786 28.0481 44.6929L27.6086 44.7644L27.3908 44.797C27.243 44.8175 27.5107 44.7807 27.3628 44.797L27.233 44.8154C26.9353 44.8522 26.6336 44.8828 26.3379 44.9053C25.7865 44.9502 25.2311 44.9686 24.6777 44.9583C24.412 44.9583 24.1483 44.942 23.8785 44.9216C23.7567 44.9216 23.6368 44.9012 23.5169 44.8889L23.3391 44.8705C23.2892 44.8705 23.0614 44.844 23.2432 44.8583C22.8042 44.8108 22.3711 44.7178 21.9506 44.5806C21.7508 44.5214 21.569 44.452 21.3832 44.3764L21.4391 44.3989C21.4154 44.3859 21.3907 44.375 21.3652 44.3662L21.2454 44.3091C21.1614 44.2682 21.0775 44.2233 20.9956 44.1763C20.9137 44.1294 20.8638 44.0967 20.7958 44.0538L20.6979 43.9844L20.652 43.9497C20.5741 43.8966 20.7559 44.0395 20.6919 43.9803C20.5426 43.8495 20.4037 43.7068 20.2764 43.5536C20.165 43.4047 20.0655 43.247 19.9787 43.0819C19.9308 42.9941 19.8888 42.9063 19.8468 42.8185C19.7689 42.6532 19.8628 42.8655 19.8249 42.7675C19.8009 42.7062 19.7789 42.645 19.7589 42.5817C19.7047 42.4081 19.6633 42.2307 19.6351 42.0508C19.6511 42.1488 19.6351 42.0508 19.6351 42.0386L19.6231 41.8793C19.6231 41.7833 19.6231 41.6751 19.6231 41.5873C19.6231 41.4995 19.6331 41.4097 19.6411 41.3219C19.6411 41.2954 19.661 41.181 19.6411 41.2872C19.6411 41.2443 19.655 41.1994 19.663 41.1565C19.6972 40.9721 19.7426 40.79 19.7989 40.6114C19.8249 40.5256 19.8548 40.4398 19.8868 40.3561C19.8868 40.3561 19.9527 40.1846 19.9108 40.2888C19.9248 40.2561 19.9387 40.2214 19.9547 40.1887C20.0346 40.0049 20.1265 39.8273 20.2244 39.6517C20.3223 39.4761 20.4102 39.3373 20.5121 39.1841C20.6092 39.0352 20.7146 38.892 20.8278 38.7554C21.0807 38.4472 21.3602 38.163 21.6629 37.906C22.2717 37.4147 22.9381 37.0032 23.6468 36.6809C23.8466 36.587 23.9365 36.5482 24.1083 36.4767C24.2801 36.4053 24.5079 36.3175 24.7077 36.244C25.1072 36.0969 25.5248 35.9663 25.9403 35.8458C27.6992 35.3046 29.5416 35.1045 31.3725 35.2557C32.1597 35.3389 32.9364 35.5052 33.6901 35.7519C33.8539 35.805 34.0177 35.8621 34.1816 35.9234L34.4253 36.0173L34.5212 36.0561L34.6191 36.0969L34.6491 36.1092L34.727 36.1439L34.8468 36.199L35.0826 36.3113C35.2464 36.393 35.4082 36.4788 35.5661 36.5686C35.8778 36.7491 36.1793 36.9475 36.4691 37.1628C36.601 37.2608 36.4232 37.124 36.4991 37.1852L36.597 37.2648L36.7968 37.4302C36.9326 37.5548 37.0645 37.6834 37.1963 37.8182C37.3282 37.9529 37.4161 38.0652 37.52 38.1959C37.532 38.2102 37.5819 38.2817 37.52 38.1959L37.6059 38.3184C37.6578 38.3919 37.7078 38.4675 37.7557 38.5451C37.8416 38.6859 37.9216 38.833 37.9935 38.982C38.0115 39.0188 38.0274 39.0555 38.0454 39.0943L38.0754 39.1658C38.0454 39.0902 38.1054 39.2434 38.1034 39.2393C38.1213 39.2862 38.1373 39.3332 38.1533 39.3822C38.2548 39.6918 38.3375 40.0075 38.4011 40.3275C38.431 40.4766 38.457 40.6236 38.479 40.7747C38.479 40.8115 38.489 40.8482 38.4949 40.885C38.481 40.7461 38.5109 40.9768 38.4949 40.885C38.4949 40.9748 38.5149 41.0626 38.5229 41.1524C38.5766 41.7546 38.5692 42.3608 38.5009 42.9615C38.5009 42.988 38.479 43.135 38.5009 42.986L38.489 43.0717C38.479 43.1452 38.467 43.2167 38.455 43.2882C38.429 43.4474 38.3971 43.6046 38.3611 43.7619C38.2941 44.0607 38.2121 44.3558 38.1154 44.6459C38.0674 44.7848 38.0175 44.9236 37.9655 45.0543L37.9335 45.136C37.8816 45.2707 37.9655 45.0625 37.9335 45.136C37.9016 45.2095 37.8696 45.285 37.8377 45.3585C37.7097 45.6421 37.5677 45.9188 37.4121 46.1875C37.2563 46.4591 37.0865 46.7245 36.9046 46.9797L36.7708 47.1614C36.7888 47.1369 36.8367 47.0716 36.7708 47.1614L36.6869 47.2697C36.583 47.4003 36.4751 47.529 36.3652 47.6556C36.1614 47.8883 35.9477 48.1109 35.7239 48.3232C35.612 48.4314 35.4961 48.5376 35.3783 48.6397L35.1985 48.7928L35.0886 48.8847L35.0506 48.9153C34.5161 49.3333 33.9465 49.7023 33.3484 50.0179C33.1986 50.0975 33.0488 50.1731 32.8969 50.2466L32.6632 50.3548L32.5473 50.4059C32.5287 50.4157 32.5093 50.4239 32.4894 50.4304C32.1477 50.5712 31.8041 50.7019 31.4525 50.8142C30.0134 51.3198 28.4885 51.5192 26.9712 51.4002L26.7375 51.3757C26.6316 51.3614 26.7275 51.3757 26.7375 51.3757L26.6056 51.3573C26.4498 51.3308 26.296 51.3022 26.1421 51.2655C25.8916 51.2115 25.6441 51.1433 25.4009 51.0613C25.293 51.0225 25.1871 50.9796 25.0793 50.9367C24.9714 50.8938 25.1971 50.9919 25.0793 50.9367L25.0213 50.9102L24.8535 50.8306C24.6799 50.745 24.5112 50.6495 24.348 50.5447C24.2821 50.5018 24.2162 50.4569 24.1483 50.4099C24.0803 50.363 23.9145 50.2058 24.0763 50.3609C23.9944 50.2854 23.9065 50.2201 23.8266 50.1445C23.7555 50.0812 23.6887 50.013 23.6268 49.9403C23.5233 49.836 23.3837 49.7775 23.2382 49.7775C23.0928 49.7775 22.9532 49.836 22.8496 49.9403C22.7493 50.0475 22.6932 50.1901 22.6932 50.3385C22.6932 50.4868 22.7493 50.6295 22.8496 50.7366C23.1433 51.0756 23.4921 51.3602 23.8805 51.5779C24.8879 52.1593 26.0153 52.4895 27.171 52.5416C28.8093 52.6292 30.4485 52.3878 31.9959 51.831C33.4116 51.349 34.7331 50.6157 35.8997 49.6647C36.9358 48.8304 37.7985 47.7931 38.4373 46.6137C39.0761 45.4342 39.4781 44.1363 39.6197 42.7961C39.679 42.1634 39.6703 41.5259 39.5938 40.8952C39.5241 40.1969 39.367 39.5107 39.1263 38.8534C38.5489 37.3874 37.3781 36.295 36.0376 35.5518C34.5744 34.7512 32.9665 34.2648 31.3126 34.1225C29.3467 33.9428 27.3468 34.2532 25.4609 34.8167C23.7826 35.319 22.1124 36.0194 20.7798 37.2036C19.5811 38.2776 18.5822 39.8906 18.5263 41.5588C18.5083 42.2532 18.6657 42.9406 18.9835 43.5547C19.3013 44.1688 19.7686 44.6888 20.3403 45.0645C21.1042 45.5091 21.947 45.7937 22.8197 45.9017C25.2171 46.2753 27.7304 45.9895 30.0779 45.3769C32.7651 44.6807 35.3623 43.4903 37.51 41.6813C38.7528 40.63 39.8308 39.3906 40.7066 38.006C41.586 36.6476 42.2319 35.1457 42.6166 33.5651C42.9735 32.1078 43.0287 30.5903 42.7784 29.1099C42.5032 27.6288 41.856 26.2462 40.9004 25.0978C39.1562 22.9621 36.555 21.8942 33.9278 21.4573C30.6693 20.9367 27.3384 21.1598 24.1742 22.1106C22.8221 22.4978 21.5193 23.0461 20.2924 23.7441C19.3374 24.3015 18.4144 24.9896 17.7671 25.9125C17.2756 26.6087 17.0059 27.5459 17.3135 28.3626C17.4493 28.7223 17.6562 29.0496 17.9212 29.3239C18.1862 29.5983 18.5037 29.8139 18.8539 29.9573C19.6763 30.291 20.5488 30.4774 21.4332 30.5085C22.4693 30.5654 23.5084 30.5272 24.5378 30.3942C26.9499 30.1187 29.3143 29.5101 31.5663 28.5852C32.6507 28.1483 33.6928 27.609 34.679 26.9742C35.5373 26.4316 36.3071 25.7551 36.9606 24.9691C37.9915 23.6767 38.6528 21.9881 38.6168 20.3077C38.5956 19.511 38.4093 18.7279 38.0701 18.0103C37.7308 17.2926 37.2464 16.6567 36.6489 16.1445C35.504 15.1727 34.113 14.5525 32.6372 14.3559C30.8991 14.1109 29.1449 14.4437 27.5087 15.0542C25.8005 15.6933 24.2102 16.5998 22.6359 17.5043C22.5736 17.5416 22.519 17.5911 22.4754 17.6499C22.4318 17.7087 22.4 17.7757 22.3817 17.8471C22.3634 17.9184 22.3591 17.9928 22.3689 18.0659C22.3788 18.139 22.4026 18.2094 22.4391 18.2731C22.4755 18.3368 22.5239 18.3925 22.5815 18.437C22.639 18.4816 22.7046 18.5142 22.7744 18.5328C22.8443 18.5515 22.917 18.556 22.9886 18.5459C23.0601 18.5358 23.129 18.5115 23.1913 18.4742" fill="#00FFC2"/>
<path d="M57.0831 47.1655L56.0202 50.9449L56.9492 51.2164L59.3727 42.6082L59.3827 42.5715L58.4517 42.2999L57.3928 46.0629L47.6851 43.2044H47.6512L47.3495 44.307L57.0831 47.1655ZM39.4259 54.9937L38.455 55.5675L43.9971 65.3681L44.015 65.3987L44.986 64.825L42.3089 60.0962L47.9169 56.7619L50.576 61.4581L50.594 61.4907L51.567 60.917L46.0229 51.1266L46.0049 51.0939L45.034 51.6677L47.4314 55.9064L41.8214 59.2223L39.4419 55.0162L39.4259 54.9937ZM25.3889 56.7007H25.353L25.3649 57.691L29.1969 57.642L29.3227 67.9632V67.9918L30.4455 67.9775L30.3177 57.6195L34.1636 57.5787L34.1516 56.5904L25.3889 56.7007ZM9.55781 62.2258L9.54182 62.2585L16.4345 65.9153L16.88 65.0373L10.9883 61.9093L12.9642 58.0299L18.4223 60.9252L18.8679 60.0472L13.4037 57.1438L15.2018 53.5931L21.0296 56.6844L21.4751 55.8064L14.6564 52.1863L9.55781 62.2258ZM1.72416 44.4765C1.5484 44.9468 1.46227 45.4472 1.47043 45.9506C1.47618 46.4938 1.55689 47.0334 1.71018 47.5534C1.8763 48.2007 2.17225 48.8056 2.57925 49.3298C2.88597 49.7125 3.26867 50.0243 3.70205 50.2445C4.05542 50.4196 4.44217 50.513 4.83484 50.5181H4.86082C5.184 50.5214 5.50607 50.4788 5.81779 50.3915C6.18417 50.2898 6.52485 50.1088 6.81673 49.8607C7.05674 49.6458 7.25235 49.3841 7.39211 49.0909C7.52875 48.796 7.61329 48.4787 7.64185 48.1537C7.67429 47.8145 7.6843 47.4734 7.67182 47.1328L7.54595 44.55C7.53101 44.2711 7.53101 43.9917 7.54595 43.7128C7.56213 43.4351 7.61316 43.1606 7.69779 42.8961C7.77834 42.6432 7.90967 42.4102 8.08338 42.2121C8.27564 42.0066 8.52081 41.8608 8.79062 41.7915C9.12983 41.6767 9.49542 41.6718 9.83751 41.7772C10.1573 41.8833 10.452 42.0565 10.7026 42.2856C10.9569 42.5218 11.1734 42.7974 11.3439 43.1023C11.5059 43.3791 11.6353 43.6745 11.7295 43.9823C11.8674 44.4477 11.9559 44.9269 11.9932 45.4116C12.0287 45.8345 11.9826 46.2605 11.8574 46.6653C11.7301 47.05 11.5078 47.3946 11.212 47.6657C10.8448 47.9865 10.4088 48.2145 9.9394 48.3314H9.90543L10.2251 49.4299H10.2591C10.8468 49.297 11.3974 49.0296 11.8693 48.6478C12.263 48.3139 12.5692 47.8852 12.7604 47.4003C12.952 46.8881 13.0391 46.3413 13.0161 45.7934C12.9927 45.1701 12.8906 44.5524 12.7124 43.9558C12.5594 43.4005 12.3406 42.8664 12.0611 42.3652C11.85 41.9873 11.5854 41.6433 11.276 41.3443C11.0334 41.1094 10.7493 40.9237 10.4389 40.7971C10.1819 40.6952 9.9134 40.6266 9.63972 40.593C9.41036 40.5609 9.17781 40.5609 8.94845 40.593C8.78321 40.6183 8.61971 40.6545 8.45898 40.7012C8.06977 40.8082 7.7083 41.0013 7.40011 41.2668C7.14015 41.5019 6.93297 41.7916 6.79275 42.1161C6.6521 42.4562 6.55993 42.8151 6.51905 43.182C6.47454 43.5797 6.45851 43.9803 6.4711 44.3805L6.59297 47.2084C6.61204 47.4353 6.61204 47.6634 6.59297 47.8903C6.57366 48.1018 6.52104 48.3086 6.43713 48.5029C6.35529 48.6892 6.2346 48.8551 6.08351 48.9888C5.9087 49.1377 5.70413 49.2457 5.48415 49.3053C5.14919 49.4209 4.79084 49.4469 4.44326 49.3809C4.15008 49.3161 3.87616 49.181 3.64411 48.9868C3.40136 48.7788 3.19818 48.5268 3.04475 48.2436C2.87589 47.9333 2.74185 47.6045 2.64518 47.2635C2.53593 46.8955 2.48138 46.5128 2.48335 46.1283C2.4827 45.7698 2.54565 45.4143 2.66915 45.0788C2.79332 44.7528 2.98324 44.4571 3.22656 44.211C3.49988 43.9417 3.829 43.7386 4.18953 43.6169L4.2215 43.6046L3.90184 42.5082H3.86787C3.35945 42.6511 2.89257 42.9181 2.50733 43.2861C2.16502 43.6226 1.89787 44.0308 1.72416 44.4826M5.49614 28.3136C5.82377 28.8639 5.95308 29.5138 5.86175 30.1512L5.49414 33.7877L1.07685 33.3221L1.44446 29.6836C1.48066 29.0394 1.73738 28.4287 2.16969 27.9583C2.56926 27.55 3.15663 27.3764 3.89984 27.454C4.64305 27.5316 5.18047 27.8195 5.49814 28.3075M5.32832 26.6924C4.91883 26.4827 4.47406 26.3545 4.01771 26.3147C3.563 26.2588 3.10204 26.2914 2.65916 26.4106C2.26374 26.5214 1.89686 26.7193 1.58431 26.9905C1.27405 27.2669 1.02539 27.6081 0.855088 27.991C0.665943 28.4199 0.54844 28.8782 0.507459 29.3467L0 34.3267V34.3634L11.0103 35.5273H11.0462L11.1601 34.3879L6.45711 33.8938L6.85669 30.0144C6.91036 29.5468 6.88672 29.0733 6.78676 28.6137C6.69599 28.2034 6.52023 27.8177 6.27131 27.4826C6.01997 27.1524 5.70079 26.8827 5.33631 26.6924M11.7694 16.8224L9.7516 20.6324L5.92368 16.0097L11.7694 16.8224ZM17.0318 16.3344L5.21843 14.8439H5.19446L4.61108 15.9423L12.221 25.3183L12.2529 25.3591L12.8203 24.2892L10.4349 21.4307L12.8023 16.9469L16.4345 17.4043H16.4584L17.0318 16.3344ZM27.5206 9.94559L28.2738 9.59644L25.9523 4.28777L21.6129 6.27444L22.0125 7.17692L25.4409 5.60677C25.6696 6.10053 25.8161 6.62981 25.8744 7.17283C25.927 7.67505 25.8752 8.18296 25.7226 8.66334C25.5684 9.14259 25.3126 9.58113 24.9734 9.94763C24.5891 10.3548 24.1293 10.6797 23.6208 10.9032C23.0366 11.1877 22.3935 11.3229 21.7468 11.2973C21.1774 11.2684 20.6223 11.1056 20.1245 10.8215C19.6249 10.5278 19.1826 10.1422 18.8199 9.68424C18.4414 9.21566 18.1262 8.69716 17.8829 8.14268C17.6373 7.58309 17.4686 6.9915 17.3815 6.3847C17.2914 5.8051 17.3049 5.21362 17.4214 4.63896C17.5431 4.0721 17.789 3.54083 18.1406 3.08515C18.5511 2.57503 19.0771 2.17485 19.673 1.91929C20.1127 1.71087 20.5875 1.59094 21.0715 1.56606C21.494 1.5449 21.9169 1.59737 22.3222 1.72123C22.6839 1.8366 23.0237 2.01405 23.3271 2.24598C23.6009 2.44819 23.8308 2.70609 24.0024 3.00348L24.0184 3.03207L25.0453 2.56041L25.0213 2.5257C24.7097 2.03336 24.3081 1.60702 23.8386 1.27C22.9764 0.655413 21.9188 0.396508 20.8777 0.54516C20.3254 0.622392 19.787 0.781272 19.2794 1.01681C18.5518 1.33189 17.903 1.81067 17.3815 2.41749C16.9244 2.95998 16.5895 3.59845 16.4005 4.28777C16.2211 4.98128 16.1736 5.70353 16.2607 6.41532C16.4491 7.92903 17.0752 9.35085 18.0587 10.4989C18.5192 11.0377 19.0776 11.4801 19.703 11.8016C20.3318 12.1165 21.0207 12.2859 21.7208 12.2977H21.8327C22.5855 12.2842 23.3269 12.1082 24.0084 11.7812C24.3692 11.6149 24.7114 11.4096 25.0293 11.1686C25.3371 10.9374 25.6109 10.6624 25.8424 10.3519C26.3068 9.72 26.5691 8.95707 26.5936 8.16719L27.5206 9.94559ZM46.1508 4.26531L46.1688 4.23264L45.1798 3.68953L42.9062 7.99772L37.2023 4.85335L39.4599 0.575787L39.4779 0.54516L38.4829 0L33.2286 9.95376L33.2106 9.98643L34.2095 10.5316L36.7368 5.71703L42.4407 8.8614L39.9194 13.6433L39.9014 13.676L40.8904 14.2211L46.1508 4.26531ZM56.4558 20.3771L57.3169 19.9259L53.8026 12.9348L43.9251 18.123L47.4754 25.1815L48.3364 24.7302L45.2997 18.6906L49.1116 16.6876L51.9226 22.278L52.7837 21.8268L49.9727 16.2364L53.455 14.3987L56.4558 20.3771ZM60 36.0316L59.2728 27.1048V27.0681L58.3078 27.1498L58.6255 31.0516L48.5602 31.9072H48.5242L48.6181 33.0506L58.7194 32.191L59.037 36.1092L60 36.0316Z" fill="#1D1D1B"/>
<g opacity="0.65">
<mask id="mask2_132_337" style="mask-type:luminance" maskUnits="userSpaceOnUse" x="17" y="14" width="26" height="25">
<path d="M42.4528 14.7357H17.5474V38.4246H42.4528V14.7357Z" fill="white"/>
</mask>
<g mask="url(#mask2_132_337)">
<path d="M26.2422 24.0401H33.7582L30.0002 17.39L26.2422 24.0401Z" fill="#FF7AAD"/>
<path d="M20.9438 33.4202L23.659 38.2204H36.3354L39.0565 33.4202H20.9438Z" fill="#FF7AAD"/>
</g>
</g>
</g>
</g>
</g>
<defs>
<clipPath id="clip0_132_337">
<rect width="60" height="68" fill="white"/>
</clipPath>
</defs>
</svg>
