<svg width="47" height="12" viewBox="0 0 47 12" fill="none" xmlns="http://www.w3.org/2000/svg">
    <path
        d="M5.36035 8.81698C5.30472 8.96519 5.0993 8.96519 5.04366 8.81698L2.0479 0.938477H0.0307617V11.5967H1.52151V4.54934C1.52151 4.35753 1.78114 4.30813 1.84961 4.48685L4.58431 11.5967H5.82256L8.55297 4.48976C8.62145 4.31103 8.88108 4.36189 8.88108 4.55224L8.87965 11.5952H10.3704V0.939929H8.33756L5.36035 8.81698Z"
        fill="black" />
    <path
        d="M13.8898 6.78287H22.7943C22.81 6.62158 22.8243 6.4443 22.8243 6.26848C22.8243 3.16038 20.305 0.664024 17.225 0.780269C14.4461 0.886342 12.1465 3.22868 12.0452 6.05924C11.9325 9.19495 14.3805 11.7581 17.4319 11.7581C19.6516 11.7581 21.5546 10.3937 22.3763 8.44081L20.7486 8.31003C20.5903 8.57449 20.3877 8.82442 20.1709 9.05836C19.4362 9.80669 18.4704 10.2179 17.4319 10.2179C16.3934 10.2179 15.4276 9.80669 14.6929 9.05836C14.1565 8.51201 13.7899 7.82762 13.643 7.07639C13.6144 6.92381 13.7357 6.78287 13.8898 6.78287ZM13.7514 5.04355C13.7543 5.03338 13.7571 5.02176 13.76 5.01304C13.7699 4.98252 13.7814 4.95491 13.7913 4.9244C13.797 4.90987 13.8013 4.89534 13.807 4.88226C13.8356 4.80816 13.8641 4.7355 13.8969 4.66285C13.9126 4.62362 13.9297 4.58729 13.9497 4.54951C13.9668 4.50883 13.9882 4.46814 14.0082 4.42891C14.0182 4.40566 14.0324 4.38095 14.0467 4.35771C14.0724 4.30685 14.1023 4.25309 14.1337 4.20223C14.2179 4.06564 14.3077 3.93196 14.4048 3.807C14.4418 3.76195 14.4775 3.71691 14.5146 3.67331C14.5274 3.66024 14.5374 3.64716 14.5488 3.63408C14.5945 3.58032 14.643 3.52946 14.6915 3.48006C15.4262 2.73173 16.3919 2.32051 17.4305 2.32051C18.469 2.32051 19.4348 2.73173 20.1694 3.48006C20.2179 3.52946 20.2664 3.58177 20.3121 3.63408C20.3249 3.64716 20.3349 3.66024 20.3463 3.67331C20.3863 3.71981 20.4262 3.76922 20.4647 3.81717C20.4662 3.82007 20.4704 3.82589 20.4733 3.83024C20.5175 3.88837 20.5603 3.94794 20.6017 4.00752C20.6459 4.07145 20.6873 4.13684 20.7272 4.20223C20.7657 4.26616 20.8014 4.3301 20.8356 4.39403C20.9041 4.5219 20.9626 4.65123 21.0168 4.782C21.0225 4.79508 21.0254 4.8067 21.0311 4.81978C21.0553 4.88226 21.0782 4.94329 21.101 5.00722C21.101 5.00868 21.1024 5.01304 21.1024 5.01449C21.1053 5.02466 21.1081 5.03338 21.111 5.045C21.1281 5.1598 21.0368 5.27168 20.9155 5.27168H13.9468C13.8284 5.27168 13.7343 5.16125 13.75 5.04791C13.7514 5.045 13.7514 5.04355 13.7514 5.04355Z"
        fill="black" />
    <path
        d="M41.6233 11.7173C38.6589 11.7173 36.2466 9.26021 36.2466 6.24075C36.2466 3.22129 38.6589 0.76416 41.6233 0.76416C44.5876 0.76416 46.9999 3.22129 46.9999 6.24075C46.9999 9.26021 44.5876 11.7173 41.6233 11.7173ZM41.6233 2.32911C39.5063 2.32911 37.783 4.08441 37.783 6.24075C37.783 8.39709 39.5063 10.1524 41.6233 10.1524C43.7403 10.1524 45.4635 8.39709 45.4635 6.24075C45.4635 4.08441 43.7403 2.32911 41.6233 2.32911Z"
        fill="black" />
    <path
        d="M34.8216 6.18263V6.2422C34.8216 8.36512 33.629 10.2091 31.8915 11.1187C31.8516 11.139 31.813 11.1594 31.7731 11.1783C31.7331 11.1971 31.6946 11.216 31.6547 11.2335C31.5876 11.2654 31.5192 11.2945 31.4521 11.3221C31.3822 11.3512 31.3109 11.3773 31.2381 11.4035C31.1582 11.4325 31.0755 11.4587 30.9942 11.4848C30.8901 11.5168 30.7831 11.5444 30.6746 11.5706C30.5805 11.5938 30.4863 11.6113 30.3908 11.6272C30.3765 11.6302 30.3637 11.6331 30.3494 11.636C30.2467 11.6534 30.1411 11.6679 30.0355 11.6796C30.0341 11.6796 30.0327 11.681 30.0298 11.681C29.8373 11.7014 29.6418 11.7173 29.4421 11.7173C26.4777 11.7173 24.0654 9.26021 24.0654 6.24075C24.0654 3.22129 26.4777 0.76416 29.4421 0.76416C31.7431 0.76416 33.7089 2.24192 34.475 4.31544H32.7831C32.124 3.12974 30.8729 2.32765 29.4407 2.32765C27.3223 2.32765 25.6004 4.0815 25.6004 6.2393C25.6004 8.39709 27.3223 10.1509 29.4407 10.1509C29.5206 10.1509 29.6005 10.1495 29.6803 10.1422C31.2681 10.0449 32.5962 8.95797 33.0827 7.48166C33.0884 7.47004 33.0912 7.45551 33.0969 7.44388C33.0969 7.44243 33.0984 7.43662 33.0984 7.43516C33.1012 7.42645 33.1055 7.41628 33.1069 7.4061C33.1098 7.37995 33.1083 7.35525 33.1012 7.332C33.0812 7.24917 33.0042 7.18088 32.9115 7.18088H29.6803V5.6697H34.7888C34.7902 5.68132 34.7902 5.6944 34.7917 5.70748C34.7945 5.73508 34.7974 5.76414 34.7988 5.79321C34.8045 5.86295 34.8088 5.9327 34.8131 6.0039C34.8202 6.06202 34.8216 6.12305 34.8216 6.18263Z"
        fill="black" />
</svg>
    