<svg width="19" height="17" viewBox="0 0 19 17" fill="none" xmlns="http://www.w3.org/2000/svg">
    <path
        d="M17.304 0H7.87412C7.001 0 6.16426 0.356392 5.5458 0.981985C3.8734 2.68547 2.64183 3.94538 0.968349 5.6456C0.34989 6.2701 0 7.12675 0 8.01609V16.2687C0 16.6719 0.32314 17 0.723319 17H9.68456C10.562 17 11.3987 16.6436 12.0172 16.0137C13.8629 14.1336 15.209 12.7669 17.059 10.8825C17.6732 10.2525 18.0231 9.40024 18.0231 8.5109V0.736761C18.0231 0.329145 17.6999 0 17.304 0ZM16.1035 5.57584L12.5479 13.7729C12.0065 15.0284 10.5705 15.593 9.33788 15.0415L2.34544 11.8972C1.92707 11.7075 1.74089 11.2116 1.92279 10.7855L5.47839 2.58847C6.01981 1.33402 7.45575 0.768368 8.68839 1.31985L15.6808 4.46416C16.0992 4.6538 16.2854 5.1497 16.1035 5.57584Z"
        fill="black" />
</svg>
    