<svg width="316" height="130" viewBox="0 0 316 130" fill="none" xmlns="http://www.w3.org/2000/svg">
<g clip-path="url(#clip0_132_356)">
<path d="M112.78 0L93.8301 59.21L93.1901 61.21H87.6201L85.3101 66.5H67.4701L56.7401 30.94L47.0601 61.37L46.7601 62.32L46.4501 63.28C42.5601 61.91 38.0401 61.21 33.0101 61.21H19.7001L19.0601 59.21L0.110107 0H23.2001L34.7701 37.78L47.0401 0H67.6601L79.2601 38.29L91.5001 0H112.78Z" fill="black"/>
<path d="M173.01 49.59V61.45C171.33 61.29 169.6 61.21 167.81 61.21H136.04V66.5H117.72V0H171.78V16.91H139.76V24.7H167.88V40.85H139.76V49.59H173.01Z" fill="black"/>
<path d="M244.12 38.24C242.06 35.48 239.15 33.38 235.38 31.92C235.22 31.86 235.05 31.8 234.89 31.75C237.59 30.33 239.72 28.54 241.27 26.36C243.14 23.73 244.07 20.74 244.07 17.38C244.07 12.32 241.89 8.15 237.52 4.89C233.15 1.63 226.37 0 217.19 0H181.66V63.12C183.51 63.68 185.27 64.35 186.95 65.15C187.83 65.57 188.67 66.02 189.49 66.5H211.86V61.21H232.28V65.02C232.62 64.93 232.96 64.84 233.28 64.74C233.62 64.64 233.96 64.54 234.28 64.42C236.47 63.7 238.39 62.77 240.04 61.65C244.82 58.42 247.21 53.93 247.21 48.16C247.21 44.3 246.18 40.99 244.12 38.24ZM203.7 15.67H214.15C216.68 15.67 218.53 16.09 219.71 16.91C220.88 17.73 221.46 18.97 221.46 20.61C221.46 22.25 220.88 23.42 219.71 24.27C218.53 25.13 216.68 25.55 214.15 25.55H203.7V15.67ZM203.7 50.82V40.37H217.19C219.66 40.37 221.51 40.82 222.75 41.7C223.98 42.59 224.6 43.89 224.6 45.6C224.6 47.31 223.98 48.61 222.75 49.49C221.51 50.38 219.66 50.82 217.19 50.82H203.7Z" fill="black"/>
<path d="M305.73 45.22C305.73 49.02 304.67 52.66 302.54 56.14C301.15 58.43 299.25 60.45 296.85 62.18C296.55 62.4 296.25 62.62 295.93 62.83C295.6 63.04 295.27 63.25 294.93 63.45C293.98 62.99 292.99 62.57 291.98 62.19C287.56 60.53 282.62 59.69 277.32 59.69C272.02 59.69 267.17 60.54 262.71 62.2C260.5 63.02 258.43 64.02 256.5 65.19C256.09 65.05 255.68 64.92 255.28 64.78C254.88 64.64 254.49 64.5 254.11 64.34C252.33 63.67 250.67 62.9 249.11 62.03L256.71 45.5C259.56 47.15 262.55 48.37 265.69 49.16C268.82 49.95 271.78 50.35 274.57 50.35C277.1 50.35 279.17 49.92 280.79 49.07C282.41 48.21 283.21 46.93 283.21 45.22C283.21 43.76 282.61 42.64 281.41 41.85C280.2 41.06 278.18 40.66 275.33 40.66H266.49V26.88L276.3 16.91H252.53V0H302.12V13.77L289.84 26.26C293.58 27.18 296.71 28.67 299.17 30.78C303.54 34.52 305.73 39.33 305.73 45.22Z" fill="black"/>
<path d="M41.0699 81.67C40.6399 80.59 40.0099 79.65 39.1599 78.86C37.4799 77.3 34.9299 76.5 31.5799 76.5H22.4199V94.08H31.5799C34.9399 94.08 37.4799 93.29 39.1599 91.72C40.8499 90.14 41.7099 87.98 41.7099 85.29C41.7099 83.95 41.4899 82.74 41.0699 81.67ZM31.5799 92.08H24.4199V78.5H31.5799C34.4099 78.5 36.4999 79.12 37.7899 80.32C39.0799 81.53 39.7099 83.16 39.7099 85.29C39.7099 87.42 39.0799 89.06 37.7899 90.26C36.4999 91.47 34.4099 92.08 31.5799 92.08Z" fill="black"/>
<path d="M201.43 75.16C199.81 72.62 197.85 70.36 195.57 68.39C194.8 67.72 194 67.09 193.16 66.5C191.51 65.31 189.73 64.26 187.81 63.35C185.87 62.42 183.82 61.65 181.66 61.03C178.94 60.25 176.06 59.72 173.01 59.45C171.32 59.29 169.59 59.21 167.81 59.21H134.04V114.97L109.66 59.21H86.31L83.12 66.5L60.38 118.55L52.24 106.61C55.64 104.69 58.4 102.17 60.44 99.1C63.01 95.25 64.31 90.6 64.31 85.29C64.31 79.98 63.01 75.31 60.45 71.4C57.88 67.49 54.21 64.44 49.52 62.34C48.73 61.99 47.91 61.66 47.06 61.37C42.96 59.94 38.25 59.21 33.01 59.21H0V127.71H24.42V110.99H28.99L40.27 127.71H81.39L85.84 116.12H109.76L114.21 127.71H167.81C175.34 127.71 182.07 126.32 187.81 123.58C193.59 120.82 198.18 116.83 201.43 111.72C204.69 106.61 206.34 100.43 206.34 93.37C206.34 86.31 204.69 80.24 201.43 75.16ZM199.75 110.64C196.69 115.43 192.39 119.18 186.95 121.77C181.48 124.39 175.04 125.71 167.81 125.71H115.59L111.13 114.12H84.47L80.01 125.71H41.33L30.05 108.99H22.42V125.71H2V61.21H33.01C38.04 61.21 42.56 61.91 46.45 63.28C47.23 63.55 47.98 63.85 48.7 64.17C53.03 66.11 56.42 68.91 58.77 72.49C61.12 76.08 62.31 80.39 62.31 85.29C62.31 90.19 61.13 94.47 58.78 97.99C56.73 101.07 53.88 103.55 50.33 105.37L49.32 105.89L60.76 122.66L85.31 66.5L87.62 61.21H108.35L134.12 120.16L136.04 119.76V61.21H167.81C169.6 61.21 171.33 61.29 173.01 61.45C176.07 61.74 178.96 62.3 181.66 63.12C183.51 63.68 185.27 64.35 186.95 65.15C187.83 65.57 188.67 66.02 189.49 66.5C193.75 68.98 197.19 72.25 199.75 76.24C202.79 80.99 204.34 86.76 204.34 93.37C204.34 99.98 202.79 105.86 199.75 110.64Z" fill="black"/>
<path d="M199.75 76.24C197.19 72.25 193.75 68.98 189.49 66.5C188.67 66.02 187.83 65.57 186.95 65.15C185.27 64.35 183.51 63.68 181.66 63.12C178.96 62.3 176.07 61.74 173.01 61.45C171.33 61.29 169.6 61.21 167.81 61.21H136.04V119.76L134.12 120.16L108.35 61.21H87.62L85.31 66.5L61.53 120.71C60.41 120.72 60.62 120.7 59.43 120.71L49.32 105.89L50.33 105.37C53.88 103.55 56.73 101.07 58.78 97.99C61.13 94.47 62.31 90.2 62.31 85.29C62.31 80.38 61.12 76.08 58.77 72.49C56.42 68.91 53.03 66.11 48.7 64.17C47.98 63.85 47.23 63.55 46.45 63.28C42.56 61.91 38.04 61.21 33.01 61.21H2V125.71H22.42V108.99H30.05L41.33 125.71H80.01L84.47 114.12H111.13L115.59 125.71H167.81C175.04 125.71 181.48 124.39 186.95 121.77C192.39 119.18 196.69 115.43 199.75 110.64C202.79 105.86 204.34 100.05 204.34 93.37C204.34 86.69 202.79 80.99 199.75 76.24ZM39.16 91.72C37.48 93.29 34.94 94.08 31.58 94.08H22.42V76.5H31.58C34.93 76.5 37.48 77.3 39.16 78.86C40.01 79.65 40.64 80.59 41.07 81.67C41.49 82.74 41.71 83.95 41.71 85.29C41.71 87.98 40.85 90.14 39.16 91.72ZM89.91 99.97L97.8 79.44L105.69 99.97H89.91ZM181.61 102.55C180.18 105.09 178.17 107.03 175.63 108.32C173.13 109.59 170.18 110.23 166.86 110.23H156.46V76.69H166.86C170.17 76.69 173.12 77.34 175.63 78.61C178.17 79.89 180.18 81.82 181.6 84.32C183.01 86.81 183.73 89.85 183.73 93.37C183.73 96.89 183.02 100.03 181.61 102.55Z" fill="#FFFFF5"/>
<path d="M96.6899 82.3301L89.9099 99.9701H105.69L98.9099 82.3301H96.6899ZM97.7999 85.0101L102.78 97.9701H92.8199L97.7999 85.0101Z" fill="black"/>
<path d="M181.6 84.3201C180.18 81.8201 178.17 79.8901 175.63 78.6101C173.12 77.3401 170.17 76.6901 166.86 76.6901H156.46V110.23H166.86C170.18 110.23 173.13 109.59 175.63 108.32C178.17 107.03 180.18 105.09 181.61 102.55C183.02 100.03 183.73 96.9501 183.73 93.3701C183.73 89.7901 183.01 86.8101 181.6 84.3201ZM166.86 108.23H158.46V78.6901H166.86C169.86 78.6901 172.5 79.2601 174.73 80.3901C176.91 81.5001 178.64 83.1501 179.86 85.3101C181.1 87.4901 181.73 90.2001 181.73 93.3701C181.73 96.5401 181.1 99.3601 179.86 101.57C178.64 103.76 176.91 105.43 174.73 106.54C172.5 107.66 169.86 108.23 166.86 108.23Z" fill="black"/>
<path d="M209.86 59.21V127.71H234.28V59.21H209.86ZM232.28 125.71H211.86V61.21H232.28V125.71Z" fill="black"/>
<path d="M232.28 61.21H211.86V125.71H232.28V61.21Z" fill="#FFFFF5"/>
<path d="M315.12 85.98C314.64 83.59 313.91 81.3 312.96 79.14C311.04 74.82 308.33 71.01 304.89 67.79C302.52 65.57 299.82 63.69 296.85 62.18C295.52 61.48 294.12 60.86 292.68 60.32C288.03 58.58 282.86 57.69 277.32 57.69C271.78 57.69 266.69 58.58 262.01 60.32C259.16 61.38 256.52 62.73 254.11 64.34C252.56 65.38 251.1 66.53 249.75 67.79C246.31 71.01 243.6 74.82 241.69 79.14C239.77 83.46 238.8 88.28 238.8 93.46C238.8 98.64 239.77 103.39 241.68 107.74C243.6 112.08 246.31 115.92 249.75 119.13C253.19 122.34 257.32 124.86 262.01 126.61C266.69 128.35 271.87 129.23 277.42 129.23C282.97 129.23 288.03 128.35 292.68 126.6C297.34 124.86 301.45 122.34 304.89 119.13C308.33 115.92 311.04 112.09 312.96 107.74C314.88 103.38 315.85 98.58 315.85 93.46C315.85 90.87 315.61 88.37 315.12 85.98ZM311.13 106.93C309.32 111.03 306.77 114.64 303.52 117.67C300.28 120.7 296.39 123.08 291.98 124.73C287.56 126.39 282.66 127.23 277.42 127.23C272.18 127.23 267.17 126.39 262.71 124.73C258.26 123.08 254.36 120.7 251.12 117.67C247.88 114.64 245.32 111.03 243.51 106.93C241.71 102.84 240.8 98.31 240.8 93.46C240.8 88.61 241.71 84.01 243.51 79.95C245.32 75.88 247.88 72.28 251.12 69.26C252.75 67.73 254.55 66.37 256.5 65.19C258.43 64.02 260.5 63.02 262.71 62.2C267.17 60.54 272.08 59.69 277.32 59.69C282.56 59.69 287.56 60.53 291.98 62.19C292.99 62.57 293.98 62.99 294.93 63.45C298.14 64.98 301.02 66.93 303.52 69.26C306.77 72.28 309.33 75.88 311.13 79.95C312.93 84.02 313.85 88.56 313.85 93.46C313.85 98.36 312.93 102.83 311.13 106.93Z" fill="black"/>
<path d="M311.13 79.95C309.33 75.88 306.77 72.28 303.52 69.26C301.02 66.93 298.14 64.98 294.93 63.45C293.98 62.99 292.99 62.57 291.98 62.19C287.56 60.53 282.62 59.69 277.32 59.69C272.02 59.69 267.17 60.54 262.71 62.2C260.5 63.02 258.43 64.02 256.5 65.19C254.55 66.37 252.75 67.73 251.12 69.26C247.88 72.28 245.32 75.88 243.51 79.95C241.71 84.01 240.8 88.56 240.8 93.46C240.8 98.36 241.71 102.84 243.51 106.93C245.32 111.03 247.88 114.64 251.12 117.67C254.36 120.7 258.26 123.08 262.71 124.73C267.17 126.39 272.11 127.23 277.42 127.23C282.73 127.23 287.56 126.39 291.98 124.73C296.39 123.08 300.28 120.7 303.52 117.67C306.77 114.64 309.32 111.03 311.13 106.93C312.93 102.83 313.85 98.3 313.85 93.46C313.85 88.62 312.93 84.02 311.13 79.95ZM292.04 100.79C291.23 102.97 290.09 104.84 288.64 106.36C287.18 107.88 285.47 109.06 283.55 109.87C281.63 110.68 279.54 111.09 277.32 111.09C275.1 111.09 273.01 110.68 271.09 109.87C269.17 109.06 267.46 107.88 266.01 106.36C264.56 104.84 263.41 102.97 262.61 100.79C261.81 98.63 261.41 96.17 261.41 93.46C261.41 90.75 261.81 88.29 262.61 86.13C263.41 83.95 264.56 82.08 266.01 80.56C267.46 79.05 269.17 77.87 271.09 77.06C273.01 76.25 275.11 75.84 277.32 75.84C279.53 75.84 281.63 76.25 283.55 77.06C285.47 77.87 287.18 79.05 288.64 80.56C290.09 82.08 291.23 83.96 292.04 86.13C292.83 88.29 293.24 90.76 293.24 93.46C293.24 96.16 292.83 98.63 292.04 100.79Z" fill="#FFFFF5"/>
<path d="M292.04 86.13C291.23 83.96 290.09 82.08 288.64 80.56C287.18 79.05 285.47 77.87 283.55 77.06C281.63 76.25 279.54 75.84 277.32 75.84C275.1 75.84 273.01 76.25 271.09 77.06C269.17 77.87 267.46 79.05 266.01 80.56C264.56 82.08 263.41 83.95 262.61 86.13C261.81 88.29 261.41 90.76 261.41 93.46C261.41 96.16 261.81 98.63 262.61 100.79C263.41 102.97 264.56 104.84 266.01 106.36C267.46 107.88 269.17 109.06 271.09 109.87C273.01 110.68 275.11 111.09 277.32 111.09C279.53 111.09 281.63 110.68 283.55 109.87C285.47 109.06 287.18 107.88 288.64 106.36C290.09 104.84 291.23 102.97 292.04 100.79C292.83 98.63 293.24 96.17 293.24 93.46C293.24 90.75 292.83 88.29 292.04 86.13ZM277.32 109.09C275.37 109.09 273.54 108.73 271.87 108.03C270.2 107.32 268.71 106.3 267.45 104.98C266.19 103.66 265.19 102.02 264.49 100.1C263.77 98.16 263.41 95.93 263.41 93.46C263.41 90.99 263.77 88.77 264.49 86.83C265.19 84.91 266.19 83.26 267.45 81.95C268.71 80.63 270.2 79.6 271.87 78.9C273.54 78.2 275.37 77.84 277.32 77.84C279.27 77.84 281.1 78.2 282.78 78.9C284.44 79.6 285.93 80.63 287.19 81.95C288.45 83.27 289.45 84.91 290.16 86.83C290.87 88.76 291.24 91 291.24 93.46C291.24 95.92 290.87 98.16 290.16 100.1C289.45 102.02 288.45 103.66 287.19 104.98C285.93 106.3 284.44 107.32 282.78 108.03C281.1 108.73 279.27 109.09 277.32 109.09Z" fill="black"/>
</g>
<defs>
<clipPath id="clip0_132_356">
<rect width="315.85" height="129.23" fill="white"/>
</clipPath>
</defs>
</svg>
