 <svg width="11" height="13" viewBox="0 0 11 13" fill="none" xmlns="http://www.w3.org/2000/svg">
        <path d="M10.2107 9.77818C10.0379 10.1868 9.83332 10.5628 9.59632 10.9086C9.27326 11.38 9.00875 11.7063 8.8049 11.8875C8.48891 12.1849 8.15033 12.3372 7.78778 12.3459C7.5275 12.3459 7.21362 12.2701 6.84824 12.1163C6.48167 11.9633 6.14479 11.8875 5.83676 11.8875C5.51371 11.8875 5.16724 11.9633 4.79664 12.1163C4.42548 12.2701 4.12648 12.3502 3.89788 12.3581C3.55021 12.3733 3.20366 12.2166 2.85776 11.8875C2.63698 11.6904 2.36083 11.3526 2.03002 10.874C1.67508 10.3629 1.38328 9.77024 1.15467 9.09457C0.909842 8.36476 0.787109 7.65806 0.787109 6.97387C0.787109 6.19014 0.952586 5.51419 1.28403 4.94774C1.54452 4.49275 1.89106 4.13384 2.32479 3.87036C2.75851 3.60688 3.22715 3.47261 3.73184 3.46402C4.00798 3.46402 4.37011 3.55144 4.82013 3.72324C5.26888 3.89562 5.55702 3.98304 5.68335 3.98304C5.77779 3.98304 6.09789 3.88082 6.64052 3.67704C7.15366 3.48806 7.58675 3.40981 7.94155 3.44063C8.90295 3.52004 9.62524 3.90789 10.1056 4.60666C9.24575 5.13983 8.82042 5.8866 8.82889 6.84459C8.83665 7.59078 9.10116 8.21173 9.621 8.70476C9.85659 8.93359 10.1197 9.11045 10.4124 9.23606C10.3489 9.42446 10.2819 9.60493 10.2107 9.77818ZM8.00574 0.898509C8.00574 1.48337 7.79695 2.02946 7.38079 2.53491C6.87857 3.13579 6.27112 3.483 5.61239 3.42821C5.60399 3.35805 5.59913 3.2842 5.59913 3.2066C5.59913 2.64513 5.83796 2.04425 6.26209 1.55295C6.47384 1.3042 6.74315 1.09736 7.06973 0.932364C7.3956 0.769829 7.70384 0.679943 7.99374 0.664551C8.00221 0.742738 8.00574 0.82093 8.00574 0.898501V0.898509Z" fill="black" />
    </svg>