        <svg width="25" height="6" viewBox="0 0 25 6" fill="none" xmlns="http://www.w3.org/2000/svg">
            <path d="M24.8865 2.19157C24.785 2.52687 24.0517 2.92584 23.5628 2.96143C21.439 3.12252 21.4344 3.07757 21.3121 4.80273C21.2453 5.7393 20.8163 6.01091 19.3866 5.99967C18.0791 5.9903 17.5764 5.70559 17.6387 4.75965C17.7494 3.09068 16.993 2.94645 15.3165 2.98953C13.6885 3.03261 12.0558 2.98953 10.3056 2.98953H9.58608C7.56602 2.98953 7.44149 3.08694 7.34925 4.72968C7.29391 5.72057 6.88805 5.9903 5.50444 5.9903C4.12084 5.9903 3.72651 5.71308 3.67347 4.71657C3.59046 3.11129 3.49591 3.03074 1.53119 2.98766C0.412776 2.96893 0.0345901 2.6711 0 1.76637C0 1.21005 0 0.655599 0 0.0355897H3.67578C3.67578 0.659345 3.65272 1.24377 3.67578 1.82631C3.7242 2.7479 4.13698 2.99702 5.49753 2.99702C6.85807 2.99702 7.27777 2.7479 7.34233 1.84504C7.36078 1.58093 7.34233 1.31494 7.36539 1.04896C7.40229 0.372755 7.87733 0.0149851 8.68674 0.00749256C10.6468 -0.0093657 12.607 0.00749256 14.6409 0.00749256C15.2935 0.00749256 15.9437 0.0243508 16.5917 0.0449554C17.4127 0.0749256 17.6179 0.668711 17.6294 1.29996C17.6548 2.83968 18.0053 3.0757 19.9032 3.00077C20.844 2.96518 21.2868 2.57182 21.3121 1.83006C21.3121 1.24564 21.3121 0.661218 21.3121 0.0374628H24.951C24.951 0.760495 25.0963 1.50975 24.8865 2.19157Z" fill="black" />
        </svg>