<svg width="300" height="181" viewBox="0 0 300 181" fill="none" xmlns="http://www.w3.org/2000/svg">
<path d="M287.612 101.647L287.322 101.647C288.277 115.759 286.223 139.438 266.743 159.976C240.248 187.888 170.006 180.089 167.027 179.735C133.562 177.655 93.7619 176.225 83.7542 175.928C64.6208 175.206 12.485 181.575 2.94004 164.251C-1.47089 156.296 -1.00811 151.937 4.93581 145.072C17.8794 129.7 68.8727 147.011 86.3718 150.634C96.5965 152.517 137.625 160.174 171.452 165.171C191.641 167.082 239.091 167.506 256.055 149.629C272.152 132.659 273.424 112.956 272.528 101.916L271.414 101.916C270.474 101.42 269.201 101.081 267.654 100.217C248.709 87.5635 265.571 0.826783 265.571 0.826783C266.295 0.444611 267.047 0.798463 267.408 1.16647C269.65 3.72838 265.34 72.8148 268.652 73.4942C269.013 73.4942 270.127 73.4659 270.85 73.4518C273.395 72.2911 270.72 2.21388 273.265 0.317232C273.627 -0.0649241 274.364 -0.0790841 275.102 0.656939C277.734 4.32286 274.885 73.381 278.558 73.3102L280.034 73.2819C283.331 73.2253 278.472 4.29454 280.988 0.911701C281.335 0.161533 282.073 -0.220639 282.81 0.133228C285.413 1.94495 284.792 72.0788 287.742 73.1404C288.479 73.4942 289.217 73.1121 289.94 73.0979C293.223 72.2911 286.541 3.78501 288.32 0.784322C289.043 0.402165 289.781 0.0199939 290.519 0.373845C293.469 1.4354 299.716 65.1433 299.847 72.5601C301.307 98.8019 291.965 96.1975 287.597 101.647L287.612 101.647Z" fill="#EE4B9B"/>
</svg>
