<svg width="20" height="20" viewBox="0 0 20 20" fill="none" xmlns="http://www.w3.org/2000/svg">
<path d="M3.33337 16.6666H2.33337V17.6666H3.33337V16.6666ZM8.20715 13.2071C8.59767 12.8165 8.59767 12.1834 8.20715 11.7929C7.81662 11.4023 7.18346 11.4023 6.79293 11.7929L8.20715 13.2071ZM2.33337 11.6666V16.6666H4.33337V11.6666H2.33337ZM3.33337 17.6666H8.33337V15.6666H3.33337V17.6666ZM4.04048 17.3737L8.20715 13.2071L6.79293 11.7929L2.62627 15.9595L4.04048 17.3737Z" fill="white"/>
<path d="M16.6666 3.33337H17.6666V2.33337H16.6666V3.33337ZM11.7929 6.79293C11.4023 7.18346 11.4023 7.81662 11.7929 8.20715C12.1834 8.59767 12.8165 8.59767 13.2071 8.20715L11.7929 6.79293ZM17.6666 8.33337V3.33337H15.6666V8.33337H17.6666ZM16.6666 2.33337H11.6666V4.33337H16.6666V2.33337ZM15.9595 2.62627L11.7929 6.79293L13.2071 8.20715L17.3737 4.04048L15.9595 2.62627Z" fill="white"/>
</svg>
