<svg width="20" height="20" viewBox="0 0 20 20" fill="none" xmlns="http://www.w3.org/2000/svg">
    <path
        fill-rule="evenodd"
        clip-rule="evenodd"
        d="M2.83808 2.83826C1.6665 4.00983 1.6665 5.89545 1.6665 9.66669V10.3334C1.6665 14.1046 1.6665 15.9902 2.83808 17.1618C4.00965 18.3334 5.89527 18.3334 9.66651 18.3334H10.3332C14.1044 18.3334 15.99 18.3334 17.1616 17.1618C18.3332 15.9902 18.3332 14.1046 18.3332 10.3333V9.66669C18.3332 6.99476 18.3332 5.26937 17.9165 4.07384V14.1667C17.1161 14.1667 16.3486 13.8487 15.7826 13.2828L15.1562 12.6564C14.7762 12.2764 14.5861 12.0863 14.3927 11.9655C13.7444 11.5605 12.9219 11.5605 12.2736 11.9655C12.0802 12.0863 11.8902 12.2764 11.5101 12.6564L11.4158 12.7507C11.0855 13.0811 10.9203 13.2462 10.7615 13.3206C10.3691 13.5046 9.90287 13.4148 9.60682 13.0983C9.48707 12.9702 9.39505 12.7555 9.21101 12.3261L9.1665 12.2222C8.71874 11.1775 8.49486 10.6551 8.17994 10.3651C7.62228 9.85164 6.82227 9.69757 6.11381 9.96721C5.71371 10.1195 5.31183 10.5214 4.50808 11.3251L2.9165 12.9167V2.76257C2.89001 2.78724 2.86387 2.81247 2.83808 2.83826Z"
        fill="#C1C7B8" />
    <path
        d="M2.4165 9.66663C2.4165 7.75981 2.4181 6.40514 2.55626 5.37748C2.69153 4.37139 2.9452 3.79174 3.36841 3.36853C3.79162 2.94532 4.37126 2.69165 5.37735 2.55638C6.40502 2.41822 7.75968 2.41663 9.6665 2.41663H10.3332C12.24 2.41663 13.5947 2.41822 14.6223 2.55638C15.6284 2.69165 16.2081 2.94532 16.6313 3.36853C17.0545 3.79174 17.3081 4.37139 17.4434 5.37747C17.5816 6.40514 17.5832 7.7598 17.5832 9.66663V10.3333C17.5832 12.2401 17.5816 13.5948 17.4434 14.6224C17.3081 15.6285 17.0545 16.2082 16.6313 16.6314C16.2081 17.0546 15.6284 17.3083 14.6223 17.4435C13.5947 17.5817 12.24 17.5833 10.3332 17.5833H9.66651C7.75969 17.5833 6.40502 17.5817 5.37735 17.4435C4.37126 17.3083 3.79162 17.0546 3.36841 16.6314C2.9452 16.2082 2.69153 15.6285 2.55626 14.6224C2.4181 13.5948 2.4165 12.2401 2.4165 10.3333V9.66663Z"
        stroke="#C1C7B8" stroke-width="1.5" />
    <circle cx="12.5002" cy="7.50004" r="1.66667" fill="#C1C7B8" />
</svg>
    