<svg width="459" height="187" viewBox="0 0 459 187" fill="none" xmlns="http://www.w3.org/2000/svg">
<mask id="path-1-outside-1_4_115" maskUnits="userSpaceOnUse" x="0" y="0" width="459" height="187" fill="black">
<rect fill="white" width="459" height="187"/>
<path d="M101.722 66L81.5621 3H103.432L119.722 56.19H108.742L126.022 3H145.552L161.662 56.19H151.132L168.142 3H188.302L168.142 66H145.372L132.232 22.44H138.352L124.492 66H101.722ZM212.459 26.4H240.539V41.7H212.459V26.4ZM213.899 49.98H245.399V66H193.019V3H244.229V19.02H213.899V49.98ZM253.575 66V3H287.235C295.935 3 302.355 4.56 306.495 7.68C310.635 10.74 312.705 14.67 312.705 19.47C312.705 22.65 311.805 25.5 310.005 28.02C308.265 30.48 305.715 32.43 302.355 33.87C298.995 35.31 294.855 36.03 289.935 36.03L291.735 31.17C296.655 31.17 300.885 31.86 304.425 33.24C308.025 34.62 310.785 36.63 312.705 39.27C314.685 41.85 315.675 44.97 315.675 48.63C315.675 54.09 313.395 58.35 308.835 61.41C304.335 64.47 297.735 66 289.035 66H253.575ZM274.455 51.15H287.235C289.575 51.15 291.315 50.73 292.455 49.89C293.655 49.05 294.255 47.82 294.255 46.2C294.255 44.58 293.655 43.35 292.455 42.51C291.315 41.67 289.575 41.25 287.235 41.25H273.015V27.21H284.355C286.755 27.21 288.495 26.82 289.575 26.04C290.715 25.2 291.285 24.03 291.285 22.53C291.285 20.97 290.715 19.8 289.575 19.02C288.495 18.24 286.755 17.85 284.355 17.85H274.455V51.15ZM342.355 67.44C338.035 67.44 333.655 66.96 329.215 66C324.775 65.04 320.875 63.63 317.515 61.77L324.715 46.11C327.415 47.67 330.235 48.84 333.175 49.62C336.175 50.34 338.995 50.7 341.635 50.7C344.035 50.7 345.985 50.31 347.485 49.53C349.045 48.69 349.825 47.46 349.825 45.84C349.825 44.46 349.255 43.41 348.115 42.69C346.975 41.91 345.055 41.52 342.355 41.52H333.985V28.47L350.275 11.91L352.165 19.02H320.755V3H367.735V16.05L351.445 32.61L341.275 26.85H346.855C354.775 26.85 360.805 28.62 364.945 32.16C369.085 35.7 371.155 40.26 371.155 45.84C371.155 49.44 370.135 52.89 368.095 56.19C366.115 59.49 362.995 62.19 358.735 64.29C354.535 66.39 349.075 67.44 342.355 67.44Z"/>
<path d="M2.64758 125V62H32.9776C38.8576 62 43.9276 62.96 48.1876 64.88C52.5076 66.8 55.8376 69.56 58.1776 73.16C60.5176 76.7 61.6876 80.9 61.6876 85.76C61.6876 90.62 60.5176 94.82 58.1776 98.36C55.8376 101.9 52.5076 104.66 48.1876 106.64C43.9276 108.56 38.8576 109.52 32.9776 109.52H14.4376L23.8876 100.43V125H2.64758ZM23.8876 102.77L14.4376 93.14H31.6276C34.5676 93.14 36.7276 92.48 38.1076 91.16C39.5476 89.84 40.2676 88.04 40.2676 85.76C40.2676 83.48 39.5476 81.68 38.1076 80.36C36.7276 79.04 34.5676 78.38 31.6276 78.38H14.4376L23.8876 68.75V102.77ZM68.6534 125V62H89.8934V108.53H118.333V125H68.6534ZM118.239 125L145.779 62H166.659L194.199 125H172.239L151.899 72.08H160.179L139.839 125H118.239ZM134.619 114.02L140.019 98.72H168.999L174.399 114.02H134.619ZM209.746 125V97.37L214.606 110.06L185.986 62H208.396L227.746 94.85H214.696L234.226 62H254.746L226.306 110.06L230.986 97.37V125H209.746ZM257.443 125V62H278.683V108.53H307.123V125H257.443ZM312.989 125V62H334.229V125H312.989ZM367.944 126.44C362.664 126.44 357.564 125.84 352.644 124.64C347.724 123.44 343.674 121.88 340.494 119.96L347.334 104.48C350.334 106.22 353.664 107.63 357.324 108.71C361.044 109.73 364.644 110.24 368.124 110.24C370.164 110.24 371.754 110.12 372.894 109.88C374.094 109.58 374.964 109.19 375.504 108.71C376.044 108.17 376.314 107.54 376.314 106.82C376.314 105.68 375.684 104.78 374.424 104.12C373.164 103.46 371.484 102.92 369.384 102.5C367.344 102.02 365.094 101.54 362.634 101.06C360.174 100.52 357.684 99.83 355.164 98.99C352.704 98.15 350.424 97.04 348.324 95.66C346.284 94.28 344.634 92.48 343.374 90.26C342.114 87.98 341.484 85.16 341.484 81.8C341.484 77.9 342.564 74.36 344.724 71.18C346.944 67.94 350.214 65.36 354.534 63.44C358.914 61.52 364.344 60.56 370.824 60.56C375.084 60.56 379.284 61.01 383.424 61.91C387.564 62.81 391.284 64.19 394.584 66.05L388.194 81.44C385.074 79.88 382.044 78.71 379.104 77.93C376.224 77.15 373.404 76.76 370.644 76.76C368.604 76.76 366.984 76.94 365.784 77.3C364.584 77.66 363.714 78.14 363.174 78.74C362.694 79.34 362.454 80 362.454 80.72C362.454 81.8 363.084 82.67 364.344 83.33C365.604 83.93 367.254 84.44 369.294 84.86C371.394 85.28 373.674 85.73 376.134 86.21C378.654 86.69 381.144 87.35 383.604 88.19C386.064 89.03 388.314 90.14 390.354 91.52C392.454 92.9 394.134 94.7 395.394 96.92C396.654 99.14 397.284 101.9 397.284 105.2C397.284 109.04 396.174 112.58 393.954 115.82C391.794 119 388.554 121.58 384.234 123.56C379.914 125.48 374.484 126.44 367.944 126.44ZM416.406 125V78.47H397.956V62H456.096V78.47H437.646V125H416.406ZM40.9239 184V121H71.2539C77.1339 121 82.2039 121.96 86.4639 123.88C90.7839 125.8 94.1139 128.56 96.4539 132.16C98.7939 135.7 99.964 139.9 99.964 144.76C99.964 149.62 98.7939 153.82 96.4539 157.36C94.1139 160.9 90.7839 163.66 86.4639 165.64C82.2039 167.56 77.1339 168.52 71.2539 168.52H52.7139L62.1639 159.43V184H40.9239ZM62.1639 161.77L52.7139 152.14H69.9039C72.8439 152.14 75.0039 151.48 76.3839 150.16C77.8239 148.84 78.5439 147.04 78.5439 144.76C78.5439 142.48 77.8239 140.68 76.3839 139.36C75.0039 138.04 72.8439 137.38 69.9039 137.38H52.7139L62.1639 127.75V161.77ZM106.93 184V121H128.17V167.53H156.61V184H106.93ZM156.516 184L184.056 121H204.936L232.476 184H210.516L190.176 131.08H198.456L178.116 184H156.516ZM172.896 173.02L178.296 157.72H207.276L212.676 173.02H172.896ZM248.022 184V156.37L252.882 169.06L224.262 121H246.672L266.022 153.85H252.972L272.502 121H293.022L264.582 169.06L269.262 156.37V184H248.022ZM315.159 144.4H343.239V159.7H315.159V144.4ZM316.599 167.98H348.099V184H295.719V121H346.929V137.02H316.599V167.98ZM356.276 184V121H386.606C392.486 121 397.556 121.96 401.816 123.88C406.136 125.8 409.466 128.56 411.806 132.16C414.146 135.7 415.316 139.9 415.316 144.76C415.316 149.62 414.146 153.82 411.806 157.36C409.466 160.84 406.136 163.51 401.816 165.37C397.556 167.23 392.486 168.16 386.606 168.16H368.066L377.516 159.43V184H356.276ZM393.986 184L378.506 161.05H401.006L416.666 184H393.986ZM377.516 161.77L368.066 152.14H385.256C388.196 152.14 390.356 151.48 391.736 150.16C393.176 148.84 393.896 147.04 393.896 144.76C393.896 142.48 393.176 140.68 391.736 139.36C390.356 138.04 388.196 137.38 385.256 137.38H368.066L377.516 127.75V161.77Z"/>
</mask>
<path d="M101.722 66L81.5621 3H103.432L119.722 56.19H108.742L126.022 3H145.552L161.662 56.19H151.132L168.142 3H188.302L168.142 66H145.372L132.232 22.44H138.352L124.492 66H101.722ZM212.459 26.4H240.539V41.7H212.459V26.4ZM213.899 49.98H245.399V66H193.019V3H244.229V19.02H213.899V49.98ZM253.575 66V3H287.235C295.935 3 302.355 4.56 306.495 7.68C310.635 10.74 312.705 14.67 312.705 19.47C312.705 22.65 311.805 25.5 310.005 28.02C308.265 30.48 305.715 32.43 302.355 33.87C298.995 35.31 294.855 36.03 289.935 36.03L291.735 31.17C296.655 31.17 300.885 31.86 304.425 33.24C308.025 34.62 310.785 36.63 312.705 39.27C314.685 41.85 315.675 44.97 315.675 48.63C315.675 54.09 313.395 58.35 308.835 61.41C304.335 64.47 297.735 66 289.035 66H253.575ZM274.455 51.15H287.235C289.575 51.15 291.315 50.73 292.455 49.89C293.655 49.05 294.255 47.82 294.255 46.2C294.255 44.58 293.655 43.35 292.455 42.51C291.315 41.67 289.575 41.25 287.235 41.25H273.015V27.21H284.355C286.755 27.21 288.495 26.82 289.575 26.04C290.715 25.2 291.285 24.03 291.285 22.53C291.285 20.97 290.715 19.8 289.575 19.02C288.495 18.24 286.755 17.85 284.355 17.85H274.455V51.15ZM342.355 67.44C338.035 67.44 333.655 66.96 329.215 66C324.775 65.04 320.875 63.63 317.515 61.77L324.715 46.11C327.415 47.67 330.235 48.84 333.175 49.62C336.175 50.34 338.995 50.7 341.635 50.7C344.035 50.7 345.985 50.31 347.485 49.53C349.045 48.69 349.825 47.46 349.825 45.84C349.825 44.46 349.255 43.41 348.115 42.69C346.975 41.91 345.055 41.52 342.355 41.52H333.985V28.47L350.275 11.91L352.165 19.02H320.755V3H367.735V16.05L351.445 32.61L341.275 26.85H346.855C354.775 26.85 360.805 28.62 364.945 32.16C369.085 35.7 371.155 40.26 371.155 45.84C371.155 49.44 370.135 52.89 368.095 56.19C366.115 59.49 362.995 62.19 358.735 64.29C354.535 66.39 349.075 67.44 342.355 67.44Z" fill="black"/>
<path d="M2.64758 125V62H32.9776C38.8576 62 43.9276 62.96 48.1876 64.88C52.5076 66.8 55.8376 69.56 58.1776 73.16C60.5176 76.7 61.6876 80.9 61.6876 85.76C61.6876 90.62 60.5176 94.82 58.1776 98.36C55.8376 101.9 52.5076 104.66 48.1876 106.64C43.9276 108.56 38.8576 109.52 32.9776 109.52H14.4376L23.8876 100.43V125H2.64758ZM23.8876 102.77L14.4376 93.14H31.6276C34.5676 93.14 36.7276 92.48 38.1076 91.16C39.5476 89.84 40.2676 88.04 40.2676 85.76C40.2676 83.48 39.5476 81.68 38.1076 80.36C36.7276 79.04 34.5676 78.38 31.6276 78.38H14.4376L23.8876 68.75V102.77ZM68.6534 125V62H89.8934V108.53H118.333V125H68.6534ZM118.239 125L145.779 62H166.659L194.199 125H172.239L151.899 72.08H160.179L139.839 125H118.239ZM134.619 114.02L140.019 98.72H168.999L174.399 114.02H134.619ZM209.746 125V97.37L214.606 110.06L185.986 62H208.396L227.746 94.85H214.696L234.226 62H254.746L226.306 110.06L230.986 97.37V125H209.746ZM257.443 125V62H278.683V108.53H307.123V125H257.443ZM312.989 125V62H334.229V125H312.989ZM367.944 126.44C362.664 126.44 357.564 125.84 352.644 124.64C347.724 123.44 343.674 121.88 340.494 119.96L347.334 104.48C350.334 106.22 353.664 107.63 357.324 108.71C361.044 109.73 364.644 110.24 368.124 110.24C370.164 110.24 371.754 110.12 372.894 109.88C374.094 109.58 374.964 109.19 375.504 108.71C376.044 108.17 376.314 107.54 376.314 106.82C376.314 105.68 375.684 104.78 374.424 104.12C373.164 103.46 371.484 102.92 369.384 102.5C367.344 102.02 365.094 101.54 362.634 101.06C360.174 100.52 357.684 99.83 355.164 98.99C352.704 98.15 350.424 97.04 348.324 95.66C346.284 94.28 344.634 92.48 343.374 90.26C342.114 87.98 341.484 85.16 341.484 81.8C341.484 77.9 342.564 74.36 344.724 71.18C346.944 67.94 350.214 65.36 354.534 63.44C358.914 61.52 364.344 60.56 370.824 60.56C375.084 60.56 379.284 61.01 383.424 61.91C387.564 62.81 391.284 64.19 394.584 66.05L388.194 81.44C385.074 79.88 382.044 78.71 379.104 77.93C376.224 77.15 373.404 76.76 370.644 76.76C368.604 76.76 366.984 76.94 365.784 77.3C364.584 77.66 363.714 78.14 363.174 78.74C362.694 79.34 362.454 80 362.454 80.72C362.454 81.8 363.084 82.67 364.344 83.33C365.604 83.93 367.254 84.44 369.294 84.86C371.394 85.28 373.674 85.73 376.134 86.21C378.654 86.69 381.144 87.35 383.604 88.19C386.064 89.03 388.314 90.14 390.354 91.52C392.454 92.9 394.134 94.7 395.394 96.92C396.654 99.14 397.284 101.9 397.284 105.2C397.284 109.04 396.174 112.58 393.954 115.82C391.794 119 388.554 121.58 384.234 123.56C379.914 125.48 374.484 126.44 367.944 126.44ZM416.406 125V78.47H397.956V62H456.096V78.47H437.646V125H416.406ZM40.9239 184V121H71.2539C77.1339 121 82.2039 121.96 86.4639 123.88C90.7839 125.8 94.1139 128.56 96.4539 132.16C98.7939 135.7 99.964 139.9 99.964 144.76C99.964 149.62 98.7939 153.82 96.4539 157.36C94.1139 160.9 90.7839 163.66 86.4639 165.64C82.2039 167.56 77.1339 168.52 71.2539 168.52H52.7139L62.1639 159.43V184H40.9239ZM62.1639 161.77L52.7139 152.14H69.9039C72.8439 152.14 75.0039 151.48 76.3839 150.16C77.8239 148.84 78.5439 147.04 78.5439 144.76C78.5439 142.48 77.8239 140.68 76.3839 139.36C75.0039 138.04 72.8439 137.38 69.9039 137.38H52.7139L62.1639 127.75V161.77ZM106.93 184V121H128.17V167.53H156.61V184H106.93ZM156.516 184L184.056 121H204.936L232.476 184H210.516L190.176 131.08H198.456L178.116 184H156.516ZM172.896 173.02L178.296 157.72H207.276L212.676 173.02H172.896ZM248.022 184V156.37L252.882 169.06L224.262 121H246.672L266.022 153.85H252.972L272.502 121H293.022L264.582 169.06L269.262 156.37V184H248.022ZM315.159 144.4H343.239V159.7H315.159V144.4ZM316.599 167.98H348.099V184H295.719V121H346.929V137.02H316.599V167.98ZM356.276 184V121H386.606C392.486 121 397.556 121.96 401.816 123.88C406.136 125.8 409.466 128.56 411.806 132.16C414.146 135.7 415.316 139.9 415.316 144.76C415.316 149.62 414.146 153.82 411.806 157.36C409.466 160.84 406.136 163.51 401.816 165.37C397.556 167.23 392.486 168.16 386.606 168.16H368.066L377.516 159.43V184H356.276ZM393.986 184L378.506 161.05H401.006L416.666 184H393.986ZM377.516 161.77L368.066 152.14H385.256C388.196 152.14 390.356 151.48 391.736 150.16C393.176 148.84 393.896 147.04 393.896 144.76C393.896 142.48 393.176 140.68 391.736 139.36C390.356 138.04 388.196 137.38 385.256 137.38H368.066L377.516 127.75V161.77Z" fill="#FFFFF5"/>
<path d="M101.722 66L99.341 66.7619L99.8972 68.5H101.722V66ZM81.5621 3V0.499996H78.1372L79.181 3.76194L81.5621 3ZM103.432 3L105.823 2.26791L105.281 0.499996H103.432V3ZM119.722 56.19V58.69H123.102L122.113 55.4579L119.722 56.19ZM108.742 56.19L106.364 55.4176L105.301 58.69H108.742V56.19ZM126.022 3V0.499996H124.206L123.644 2.22755L126.022 3ZM145.552 3L147.945 2.27531L147.407 0.499996H145.552V3ZM161.662 56.19V58.69H165.031L164.055 55.4653L161.662 56.19ZM151.132 56.19L148.751 55.4285L147.708 58.69H151.132V56.19ZM168.142 3V0.499996H166.317L165.761 2.23849L168.142 3ZM188.302 3L190.683 3.76194L191.727 0.499996H188.302V3ZM168.142 66V68.5H169.967L170.523 66.7619L168.142 66ZM145.372 66L142.979 66.722L143.515 68.5H145.372V66ZM132.232 22.44V19.94H128.867L129.839 23.162L132.232 22.44ZM138.352 22.44L140.734 23.198L141.771 19.94H138.352V22.44ZM124.492 66V68.5H126.32L126.874 66.758L124.492 66ZM104.103 65.2381L83.9432 2.23806L79.181 3.76194L99.341 66.7619L104.103 65.2381ZM81.5621 5.5H103.432V0.499996H81.5621V5.5ZM101.042 3.73208L117.332 56.9221L122.113 55.4579L105.823 2.26791L101.042 3.73208ZM119.722 53.69H108.742V58.69H119.722V53.69ZM111.12 56.9624L128.4 3.77244L123.644 2.22755L106.364 55.4176L111.12 56.9624ZM126.022 5.5H145.552V0.499996H126.022V5.5ZM143.159 3.72468L159.269 56.9147L164.055 55.4653L147.945 2.27531L143.159 3.72468ZM161.662 53.69H151.132V58.69H161.662V53.69ZM153.513 56.9515L170.523 3.7615L165.761 2.23849L148.751 55.4285L153.513 56.9515ZM168.142 5.5H188.302V0.499996H168.142V5.5ZM185.921 2.23806L165.761 65.2381L170.523 66.7619L190.683 3.76194L185.921 2.23806ZM168.142 63.5H145.372V68.5H168.142V63.5ZM147.766 65.278L134.626 21.718L129.839 23.162L142.979 66.722L147.766 65.278ZM132.232 24.94H138.352V19.94H132.232V24.94ZM135.97 21.682L122.11 65.242L126.874 66.758L140.734 23.198L135.97 21.682ZM124.492 63.5H101.722V68.5H124.492V63.5ZM212.459 26.4V23.9H209.959V26.4H212.459ZM240.539 26.4H243.039V23.9H240.539V26.4ZM240.539 41.7V44.2H243.039V41.7H240.539ZM212.459 41.7H209.959V44.2H212.459V41.7ZM213.899 49.98H211.399V52.48H213.899V49.98ZM245.399 49.98H247.899V47.48H245.399V49.98ZM245.399 66V68.5H247.899V66H245.399ZM193.019 66H190.519V68.5H193.019V66ZM193.019 3V0.499996H190.519V3H193.019ZM244.229 3H246.729V0.499996H244.229V3ZM244.229 19.02V21.52H246.729V19.02H244.229ZM213.899 19.02V16.52H211.399V19.02H213.899ZM212.459 28.9H240.539V23.9H212.459V28.9ZM238.039 26.4V41.7H243.039V26.4H238.039ZM240.539 39.2H212.459V44.2H240.539V39.2ZM214.959 41.7V26.4H209.959V41.7H214.959ZM213.899 52.48H245.399V47.48H213.899V52.48ZM242.899 49.98V66H247.899V49.98H242.899ZM245.399 63.5H193.019V68.5H245.399V63.5ZM195.519 66V3H190.519V66H195.519ZM193.019 5.5H244.229V0.499996H193.019V5.5ZM241.729 3V19.02H246.729V3H241.729ZM244.229 16.52H213.899V21.52H244.229V16.52ZM211.399 19.02V49.98H216.399V19.02H211.399ZM253.575 66H251.075V68.5H253.575V66ZM253.575 3V0.499996H251.075V3H253.575ZM306.495 7.68L304.991 9.67652L305 9.68353L305.009 9.69044L306.495 7.68ZM310.005 28.02L307.971 26.5669L307.964 26.5763L310.005 28.02ZM302.355 33.87L301.371 31.5721L302.355 33.87ZM289.935 36.03L287.591 35.1617L286.343 38.53H289.935V36.03ZM291.735 31.17V28.67H289.995L289.391 30.3017L291.735 31.17ZM304.425 33.24L303.517 35.5693L303.53 35.5744L304.425 33.24ZM312.705 39.27L310.683 40.7404L310.702 40.7665L310.722 40.792L312.705 39.27ZM308.835 61.41L307.442 59.3341L307.436 59.3384L307.43 59.3427L308.835 61.41ZM274.455 51.15H271.955V53.65H274.455V51.15ZM292.455 49.89L291.022 47.8419L290.997 47.8593L290.972 47.8774L292.455 49.89ZM292.455 42.51L290.972 44.5226L290.997 44.5407L291.022 44.5581L292.455 42.51ZM273.015 41.25H270.515V43.75H273.015V41.25ZM273.015 27.21V24.71H270.515V27.21H273.015ZM289.575 26.04L291.039 28.0667L291.049 28.0597L291.058 28.0526L289.575 26.04ZM289.575 19.02L288.112 21.0467L288.137 21.0653L288.164 21.0833L289.575 19.02ZM274.455 17.85V15.35H271.955V17.85H274.455ZM256.075 66V3H251.075V66H256.075ZM253.575 5.5H287.235V0.499996H253.575V5.5ZM287.235 5.5C295.727 5.5 301.491 7.03932 304.991 9.67652L308 5.68348C303.219 2.08068 296.144 0.499996 287.235 0.499996V5.5ZM305.009 9.69044C308.565 12.3189 310.205 15.5278 310.205 19.47H315.205C315.205 13.8122 312.705 9.16109 307.981 5.66956L305.009 9.69044ZM310.205 19.47C310.205 22.1439 309.46 24.4829 307.971 26.5669L312.04 29.4731C314.151 26.5171 315.205 23.1561 315.205 19.47H310.205ZM307.964 26.5763C306.543 28.5864 304.397 30.275 301.371 31.5721L303.34 36.1679C307.034 34.5849 309.988 32.3736 312.046 29.4637L307.964 26.5763ZM301.371 31.5721C298.409 32.8412 294.627 33.53 289.935 33.53V38.53C295.083 38.53 299.581 37.7788 303.34 36.1679L301.371 31.5721ZM292.28 36.8983L294.08 32.0383L289.391 30.3017L287.591 35.1617L292.28 36.8983ZM291.735 33.67C296.432 33.67 300.338 34.3299 303.517 35.5693L305.333 30.9107C301.432 29.39 296.879 28.67 291.735 28.67V33.67ZM303.53 35.5744C306.762 36.8132 309.096 38.5575 310.683 40.7404L314.727 37.7996C312.475 34.7025 309.288 32.4268 305.32 30.9056L303.53 35.5744ZM310.722 40.792C312.325 42.8811 313.175 45.4478 313.175 48.63H318.175C318.175 44.4922 317.045 40.8189 314.689 37.748L310.722 40.792ZM313.175 48.63C313.175 53.251 311.315 56.7351 307.442 59.3341L310.228 63.4859C315.475 59.9649 318.175 54.929 318.175 48.63H313.175ZM307.43 59.3427C303.525 61.998 297.509 63.5 289.035 63.5V68.5C297.962 68.5 305.146 66.942 310.241 63.4773L307.43 59.3427ZM289.035 63.5H253.575V68.5H289.035V63.5ZM274.455 53.65H287.235V48.65H274.455V53.65ZM287.235 53.65C289.792 53.65 292.169 53.2063 293.938 51.9026L290.972 47.8774C290.462 48.2537 289.359 48.65 287.235 48.65V53.65ZM293.889 51.9381C295.836 50.5752 296.755 48.5349 296.755 46.2H291.755C291.755 47.1051 291.475 47.5248 291.022 47.8419L293.889 51.9381ZM296.755 46.2C296.755 43.8651 295.836 41.8248 293.889 40.4619L291.022 44.5581C291.475 44.8752 291.755 45.2949 291.755 46.2H296.755ZM293.938 40.4974C292.169 39.1937 289.792 38.75 287.235 38.75V43.75C289.359 43.75 290.462 44.1463 290.972 44.5226L293.938 40.4974ZM287.235 38.75H273.015V43.75H287.235V38.75ZM275.515 41.25V27.21H270.515V41.25H275.515ZM273.015 29.71H284.355V24.71H273.015V29.71ZM284.355 29.71C286.912 29.71 289.309 29.3164 291.039 28.0667L288.112 24.0133C287.682 24.3236 286.599 24.71 284.355 24.71V29.71ZM291.058 28.0526C292.881 26.7097 293.785 24.7692 293.785 22.53H288.785C288.785 23.2908 288.55 23.6903 288.092 24.0274L291.058 28.0526ZM293.785 22.53C293.785 20.2691 292.905 18.2688 290.987 16.9567L288.164 21.0833C288.526 21.3312 288.785 21.6708 288.785 22.53H293.785ZM291.039 16.9933C289.309 15.7436 286.912 15.35 284.355 15.35V20.35C286.599 20.35 287.682 20.7364 288.112 21.0467L291.039 16.9933ZM284.355 15.35H274.455V20.35H284.355V15.35ZM271.955 17.85V51.15H276.955V17.85H271.955ZM329.215 66L328.686 68.4435L329.215 66ZM317.515 61.77L315.243 60.7257L314.274 62.8336L316.304 63.9572L317.515 61.77ZM324.715 46.11L325.965 43.9453L323.59 42.5726L322.443 45.0657L324.715 46.11ZM333.175 49.62L332.534 52.0364L332.562 52.044L332.591 52.051L333.175 49.62ZM347.485 49.53L348.638 51.748L348.654 51.7397L348.67 51.7312L347.485 49.53ZM348.115 42.69L346.703 44.7533L346.741 44.7792L346.78 44.8037L348.115 42.69ZM333.985 41.52H331.485V44.02H333.985V41.52ZM333.985 28.47L332.202 26.7168L331.485 27.4465V28.47H333.985ZM350.275 11.91L352.691 11.2677L351.565 7.0332L348.492 10.1568L350.275 11.91ZM352.165 19.02V21.52H355.416L354.581 18.3777L352.165 19.02ZM320.755 19.02H318.255V21.52H320.755V19.02ZM320.755 3V0.499996H318.255V3H320.755ZM367.735 3H370.235V0.499996H367.735V3ZM367.735 16.05L369.517 17.8032L370.235 17.0735V16.05H367.735ZM351.445 32.61L350.213 34.7853L351.882 35.7307L353.227 34.3632L351.445 32.61ZM341.275 26.85V24.35H331.788L340.043 29.0253L341.275 26.85ZM368.095 56.19L365.968 54.8754L365.959 54.8895L365.951 54.9038L368.095 56.19ZM358.735 64.29L357.629 62.0476L357.617 62.0539L358.735 64.29ZM342.355 64.94C338.221 64.94 334.018 64.4809 329.743 63.5565L328.686 68.4435C333.291 69.4391 337.848 69.94 342.355 69.94V64.94ZM329.743 63.5565C325.499 62.6389 321.837 61.3051 318.725 59.5828L316.304 63.9572C319.913 65.9548 324.05 67.4411 328.686 68.4435L329.743 63.5565ZM319.786 62.8143L326.986 47.1543L322.443 45.0657L315.243 60.7257L319.786 62.8143ZM323.464 48.2747C326.35 49.9423 329.375 51.1984 332.534 52.0364L333.816 47.2036C331.095 46.4816 328.479 45.3977 325.965 43.9453L323.464 48.2747ZM332.591 52.051C335.751 52.8093 338.768 53.2 341.635 53.2V48.2C339.221 48.2 336.598 47.8707 333.758 47.189L332.591 52.051ZM341.635 53.2C344.278 53.2 346.664 52.7745 348.638 51.748L346.331 47.312C345.305 47.8455 343.791 48.2 341.635 48.2V53.2ZM348.67 51.7312C349.746 51.1517 350.687 50.3641 351.351 49.3164C352.023 48.2569 352.325 47.0691 352.325 45.84H347.325C347.325 46.2309 347.237 46.4681 347.128 46.6386C347.013 46.8209 346.783 47.0683 346.299 47.3288L348.67 51.7312ZM352.325 45.84C352.325 43.6267 351.335 41.7673 349.45 40.5763L346.78 44.8037C347.174 45.0527 347.325 45.2933 347.325 45.84H352.325ZM349.526 40.6267C347.73 39.3978 345.156 39.02 342.355 39.02V44.02C344.954 44.02 346.219 44.4222 346.703 44.7533L349.526 40.6267ZM342.355 39.02H333.985V44.02H342.355V39.02ZM336.485 41.52V28.47H331.485V41.52H336.485ZM335.767 30.2232L352.057 13.6632L348.492 10.1568L332.202 26.7168L335.767 30.2232ZM347.859 12.5523L349.749 19.6623L354.581 18.3777L352.691 11.2677L347.859 12.5523ZM352.165 16.52H320.755V21.52H352.165V16.52ZM323.255 19.02V3H318.255V19.02H323.255ZM320.755 5.5H367.735V0.499996H320.755V5.5ZM365.235 3V16.05H370.235V3H365.235ZM365.952 14.2968L349.662 30.8568L353.227 34.3632L369.517 17.8032L365.952 14.2968ZM352.677 30.4347L342.507 24.6747L340.043 29.0253L350.213 34.7853L352.677 30.4347ZM341.275 29.35H346.855V24.35H341.275V29.35ZM346.855 29.35C354.443 29.35 359.8 31.0501 363.32 34.0601L366.569 30.2599C361.81 26.1899 355.106 24.35 346.855 24.35V29.35ZM363.32 34.0601C366.889 37.112 368.655 40.9704 368.655 45.84H373.655C373.655 39.5496 371.28 34.288 366.569 30.2599L363.32 34.0601ZM368.655 45.84C368.655 48.9395 367.784 51.9385 365.968 54.8754L370.221 57.5046C372.486 53.8415 373.655 49.9405 373.655 45.84H368.655ZM365.951 54.9038C364.27 57.7049 361.56 60.1102 357.629 62.0477L359.84 66.5323C364.43 64.2698 367.959 61.2751 370.238 57.4762L365.951 54.9038ZM357.617 62.0539C353.881 63.922 348.843 64.94 342.355 64.94V69.94C349.307 69.94 355.189 68.858 359.853 66.5261L357.617 62.0539ZM2.64758 125H0.147583V127.5H2.64758V125ZM2.64758 62V59.5H0.147583V62H2.64758ZM48.1876 64.88L47.1603 67.1592L47.1722 67.1645L48.1876 64.88ZM58.1776 73.16L56.0815 74.5225L56.0867 74.5305L56.092 74.5386L58.1776 73.16ZM58.1776 98.36L56.092 96.9814L58.1776 98.36ZM48.1876 106.64L49.2148 108.919L49.222 108.916L49.2292 108.913L48.1876 106.64ZM14.4376 109.52L12.7045 107.718L8.23235 112.02H14.4376V109.52ZM23.8876 100.43H26.3876V94.5564L22.1545 98.6283L23.8876 100.43ZM23.8876 125V127.5H26.3876V125H23.8876ZM23.8876 102.77L22.1032 104.521L26.3876 108.887V102.77H23.8876ZM14.4376 93.14V90.64H8.48166L12.6532 94.891L14.4376 93.14ZM38.1076 91.16L36.4183 89.3171L36.3987 89.335L36.3795 89.3534L38.1076 91.16ZM38.1076 80.36L36.3795 82.1666L36.3987 82.185L36.4183 82.2029L38.1076 80.36ZM14.4376 78.38L12.6532 76.629L8.48166 80.88H14.4376V78.38ZM23.8876 68.75H26.3876V62.633L22.1032 66.999L23.8876 68.75ZM5.14758 125V62H0.147583V125H5.14758ZM2.64758 64.5H32.9776V59.5H2.64758V64.5ZM32.9776 64.5C38.592 64.5 43.2953 65.4172 47.1603 67.1592L49.2148 62.6008C44.5599 60.5028 39.1232 59.5 32.9776 59.5V64.5ZM47.1722 67.1645C51.0968 68.9088 54.0313 71.3684 56.0815 74.5225L60.2737 71.7975C57.6438 67.7516 53.9184 64.6912 49.2029 62.5955L47.1722 67.1645ZM56.092 74.5386C58.124 77.6125 59.1876 81.317 59.1876 85.76H64.1876C64.1876 80.483 62.9112 75.7875 60.2631 71.7814L56.092 74.5386ZM59.1876 85.76C59.1876 90.203 58.124 93.9075 56.092 96.9814L60.2631 99.7386C62.9112 95.7325 64.1876 91.037 64.1876 85.76H59.1876ZM56.092 96.9814C54.0397 100.086 51.0937 102.558 47.146 104.367L49.2292 108.913C53.9215 106.762 57.6355 103.714 60.2631 99.7386L56.092 96.9814ZM47.1603 104.361C43.2953 106.103 38.592 107.02 32.9776 107.02V112.02C39.1232 112.02 44.5599 111.017 49.2148 108.919L47.1603 104.361ZM32.9776 107.02H14.4376V112.02H32.9776V107.02ZM16.1707 111.322L25.6207 102.232L22.1545 98.6283L12.7045 107.718L16.1707 111.322ZM21.3876 100.43V125H26.3876V100.43H21.3876ZM23.8876 122.5H2.64758V127.5H23.8876V122.5ZM25.672 101.019L16.2219 91.389L12.6532 94.891L22.1032 104.521L25.672 101.019ZM14.4376 95.64H31.6276V90.64H14.4376V95.64ZM31.6276 95.64C34.874 95.64 37.7933 94.9201 39.8356 92.9666L36.3795 89.3534C35.6619 90.0399 34.2612 90.64 31.6276 90.64V95.64ZM39.7969 93.0029C41.841 91.1291 42.7676 88.6125 42.7676 85.76H37.7676C37.7676 87.4675 37.2542 88.5509 36.4183 89.3171L39.7969 93.0029ZM42.7676 85.76C42.7676 82.9075 41.841 80.3909 39.7969 78.5171L36.4183 82.2029C37.2542 82.9691 37.7676 84.0525 37.7676 85.76H42.7676ZM39.8356 78.5534C37.7933 76.5999 34.874 75.88 31.6276 75.88V80.88C34.2612 80.88 35.6619 81.4801 36.3795 82.1666L39.8356 78.5534ZM31.6276 75.88H14.4376V80.88H31.6276V75.88ZM16.2219 80.131L25.672 70.501L22.1032 66.999L12.6532 76.629L16.2219 80.131ZM21.3876 68.75V102.77H26.3876V68.75H21.3876ZM68.6534 125H66.1534V127.5H68.6534V125ZM68.6534 62V59.5H66.1534V62H68.6534ZM89.8934 62H92.3934V59.5H89.8934V62ZM89.8934 108.53H87.3934V111.03H89.8934V108.53ZM118.333 108.53H120.833V106.03H118.333V108.53ZM118.333 125V127.5H120.833V125H118.333ZM71.1534 125V62H66.1534V125H71.1534ZM68.6534 64.5H89.8934V59.5H68.6534V64.5ZM87.3934 62V108.53H92.3934V62H87.3934ZM89.8934 111.03H118.333V106.03H89.8934V111.03ZM115.833 108.53V125H120.833V108.53H115.833ZM118.333 122.5H68.6534V127.5H118.333V122.5ZM118.239 125L115.949 123.999L114.418 127.5H118.239V125ZM145.779 62V59.5H144.144L143.489 60.9986L145.779 62ZM166.659 62L168.95 60.9986L168.295 59.5H166.659V62ZM194.199 125V127.5H198.021L196.49 123.999L194.199 125ZM172.239 125L169.906 125.897L170.522 127.5H172.239V125ZM151.899 72.08V69.58H148.26L149.566 72.9769L151.899 72.08ZM160.179 72.08L162.513 72.9769L163.818 69.58H160.179V72.08ZM139.839 125V127.5H141.557L142.173 125.897L139.839 125ZM134.619 114.02L132.262 113.188L131.086 116.52H134.619V114.02ZM140.019 98.72V96.22H138.25L137.662 97.8879L140.019 98.72ZM168.999 98.72L171.357 97.8879L170.768 96.22H168.999V98.72ZM174.399 114.02V116.52H177.933L176.757 113.188L174.399 114.02ZM120.53 126.001L148.07 63.0014L143.489 60.9986L115.949 123.999L120.53 126.001ZM145.779 64.5H166.659V59.5H145.779V64.5ZM164.369 63.0014L191.909 126.001L196.49 123.999L168.95 60.9986L164.369 63.0014ZM194.199 122.5H172.239V127.5H194.199V122.5ZM174.573 124.103L154.233 71.1831L149.566 72.9769L169.906 125.897L174.573 124.103ZM151.899 74.58H160.179V69.58H151.899V74.58ZM157.846 71.1831L137.506 124.103L142.173 125.897L162.513 72.9769L157.846 71.1831ZM139.839 122.5H118.239V127.5H139.839V122.5ZM136.977 114.852L142.377 99.552L137.662 97.8879L132.262 113.188L136.977 114.852ZM140.019 101.22H168.999V96.22H140.019V101.22ZM166.642 99.552L172.042 114.852L176.757 113.188L171.357 97.8879L166.642 99.552ZM174.399 111.52H134.619V116.52H174.399V111.52ZM209.746 125H207.246V127.5H209.746V125ZM209.746 97.37L212.081 96.4759L207.246 97.37H209.746ZM214.606 110.06L212.458 111.339L216.941 109.166L214.606 110.06ZM185.986 62V59.5H181.588L183.838 63.2791L185.986 62ZM208.396 62L210.55 60.7312L209.825 59.5H208.396V62ZM227.746 94.85V97.35H232.12L229.9 93.5812L227.746 94.85ZM214.696 94.85L212.547 93.5724L210.301 97.35H214.696V94.85ZM234.226 62V59.5H232.804L232.077 60.7224L234.226 62ZM254.746 62L256.898 63.2732L259.13 59.5H254.746V62ZM226.306 110.06L223.96 109.195L228.458 111.333L226.306 110.06ZM230.986 97.37H233.486L228.64 96.505L230.986 97.37ZM230.986 125V127.5H233.486V125H230.986ZM212.246 125V97.37H207.246V125H212.246ZM207.411 98.2641L212.271 110.954L216.941 109.166L212.081 96.4759L207.411 98.2641ZM216.754 108.781L188.134 60.7209L183.838 63.2791L212.458 111.339L216.754 108.781ZM185.986 64.5H208.396V59.5H185.986V64.5ZM206.242 63.2688L225.592 96.1188L229.9 93.5812L210.55 60.7312L206.242 63.2688ZM227.746 92.35H214.696V97.35H227.746V92.35ZM216.845 96.1276L236.375 63.2776L232.077 60.7224L212.547 93.5724L216.845 96.1276ZM234.226 64.5H254.746V59.5H234.226V64.5ZM252.595 60.7268L224.155 108.787L228.458 111.333L256.898 63.2732L252.595 60.7268ZM228.652 110.925L233.332 98.235L228.64 96.505L223.96 109.195L228.652 110.925ZM228.486 97.37V125H233.486V97.37H228.486ZM230.986 122.5H209.746V127.5H230.986V122.5ZM257.443 125H254.943V127.5H257.443V125ZM257.443 62V59.5H254.943V62H257.443ZM278.682 62H281.182V59.5H278.682V62ZM278.682 108.53H276.182V111.03H278.682V108.53ZM307.122 108.53H309.622V106.03H307.122V108.53ZM307.122 125V127.5H309.622V125H307.122ZM259.943 125V62H254.943V125H259.943ZM257.443 64.5H278.682V59.5H257.443V64.5ZM276.182 62V108.53H281.182V62H276.182ZM278.682 111.03H307.122V106.03H278.682V111.03ZM304.622 108.53V125H309.622V108.53H304.622ZM307.122 122.5H257.443V127.5H307.122V122.5ZM312.989 125H310.489V127.5H312.989V125ZM312.989 62V59.5H310.489V62H312.989ZM334.229 62H336.729V59.5H334.229V62ZM334.229 125V127.5H336.729V125H334.229ZM315.489 125V62H310.489V125H315.489ZM312.989 64.5H334.229V59.5H312.989V64.5ZM331.729 62V125H336.729V62H331.729ZM334.229 122.5H312.989V127.5H334.229V122.5ZM352.644 124.64L353.237 122.211L352.644 124.64ZM340.494 119.96L338.207 118.95L337.318 120.963L339.202 122.1L340.494 119.96ZM347.334 104.48L348.589 102.317L346.175 100.918L345.048 103.47L347.334 104.48ZM357.324 108.71L356.617 111.108L356.64 111.115L356.663 111.121L357.324 108.71ZM372.894 109.88L373.409 112.326L373.455 112.317L373.501 112.305L372.894 109.88ZM375.504 108.71L377.165 110.579L377.22 110.53L377.272 110.478L375.504 108.71ZM374.424 104.12L373.264 106.335L374.424 104.12ZM369.384 102.5L368.812 104.934L368.853 104.943L368.894 104.951L369.384 102.5ZM362.634 101.06L362.098 103.502L362.127 103.508L362.155 103.514L362.634 101.06ZM355.164 98.99L354.356 101.356L354.365 101.359L354.374 101.362L355.164 98.99ZM348.324 95.66L346.923 97.7307L346.937 97.7401L346.951 97.7493L348.324 95.66ZM343.374 90.26L341.186 91.4692L341.193 91.4817L341.2 91.494L343.374 90.26ZM344.724 71.18L342.662 69.7669L342.656 69.7753L344.724 71.18ZM354.534 63.44L353.531 61.1503L353.519 61.1555L354.534 63.44ZM383.424 61.91L382.893 64.3529L383.424 61.91ZM394.584 66.05L396.893 67.0087L397.743 64.9608L395.812 63.8721L394.584 66.05ZM388.194 81.44L387.076 83.6761L389.475 84.8754L390.503 82.3987L388.194 81.44ZM379.104 77.93L378.451 80.3431L378.463 80.3464L379.104 77.93ZM365.784 77.3L365.066 74.9054L365.784 77.3ZM363.174 78.74L361.316 77.0676L361.267 77.1216L361.222 77.1783L363.174 78.74ZM364.344 83.33L363.184 85.5446L363.226 85.5667L363.269 85.5872L364.344 83.33ZM369.294 84.86L368.79 87.3087L368.804 87.3114L369.294 84.86ZM376.134 86.21L375.655 88.6637L375.666 88.6658L376.134 86.21ZM383.604 88.19L382.796 90.5559V90.5559L383.604 88.19ZM390.354 91.52L388.953 93.5907L388.967 93.6001L388.981 93.6093L390.354 91.52ZM395.394 96.92L393.22 98.154L395.394 96.92ZM393.954 115.82L391.892 114.407L391.886 114.415L393.954 115.82ZM384.234 123.56L385.25 125.845L385.263 125.839L385.276 125.833L384.234 123.56ZM367.944 123.94C362.855 123.94 357.955 123.362 353.237 122.211L352.052 127.069C357.174 128.318 362.473 128.94 367.944 128.94V123.94ZM353.237 122.211C348.48 121.051 344.686 119.571 341.786 117.82L339.202 122.1C342.662 124.189 346.968 125.829 352.052 127.069L353.237 122.211ZM342.781 120.97L349.621 105.49L345.048 103.47L338.207 118.95L342.781 120.97ZM346.08 106.643C349.268 108.492 352.785 109.977 356.617 111.108L358.032 106.312C354.544 105.283 351.4 103.948 348.589 102.317L346.08 106.643ZM356.663 111.121C360.576 112.194 364.398 112.74 368.124 112.74V107.74C364.89 107.74 361.513 107.266 357.985 106.299L356.663 111.121ZM368.124 112.74C370.229 112.74 372.019 112.619 373.409 112.326L372.379 107.434C371.489 107.621 370.099 107.74 368.124 107.74V112.74ZM373.501 112.305C374.849 111.968 376.18 111.454 377.165 110.579L373.843 106.841C373.748 106.926 373.339 107.192 372.288 107.455L373.501 112.305ZM377.272 110.478C378.249 109.5 378.814 108.246 378.814 106.82H373.814C373.814 106.843 373.812 106.853 373.812 106.853C373.812 106.853 373.812 106.853 373.813 106.851C373.813 106.85 373.814 106.848 373.814 106.848C373.815 106.846 373.813 106.851 373.803 106.865C373.793 106.879 373.773 106.906 373.736 106.942L377.272 110.478ZM378.814 106.82C378.814 104.505 377.426 102.87 375.584 101.905L373.264 106.335C373.641 106.532 373.766 106.683 373.794 106.724C373.801 106.734 373.804 106.74 373.805 106.743C373.806 106.745 373.807 106.746 373.807 106.748C373.807 106.748 373.814 106.768 373.814 106.82H378.814ZM375.584 101.905C374.036 101.094 372.103 100.494 369.875 100.049L368.894 104.951C370.866 105.346 372.293 105.826 373.264 106.335L375.584 101.905ZM369.957 100.066C367.88 99.5779 365.599 99.0913 363.113 98.6063L362.155 103.514C364.59 103.989 366.808 104.462 368.812 104.934L369.957 100.066ZM363.17 98.6181C360.801 98.098 358.396 97.4319 355.955 96.6183L354.374 101.362C356.973 102.228 359.548 102.942 362.098 103.502L363.17 98.6181ZM355.972 96.6241C353.704 95.8498 351.615 94.8312 349.697 93.5707L346.951 97.7493C349.233 99.2488 351.704 100.45 354.356 101.356L355.972 96.6241ZM349.725 93.5893C348.016 92.4329 346.626 90.9238 345.548 89.026L341.2 91.494C342.643 94.0361 344.553 96.1271 346.923 97.7307L349.725 93.5893ZM345.562 89.0508C344.558 87.2331 343.984 84.8565 343.984 81.8H338.984C338.984 85.4635 339.671 88.7269 341.186 91.4692L345.562 89.0508ZM343.984 81.8C343.984 78.3932 344.918 75.344 346.792 72.5847L342.656 69.7753C340.21 73.376 338.984 77.4068 338.984 81.8H343.984ZM346.787 72.5931C348.696 69.8062 351.566 67.4951 355.55 65.7245L353.519 61.1555C348.863 63.2249 345.192 66.0738 342.662 69.7669L346.787 72.5931ZM355.538 65.7297C359.51 63.9883 364.574 63.06 370.824 63.06V58.06C364.114 58.06 358.318 59.0517 353.531 61.1503L355.538 65.7297ZM370.824 63.06C374.907 63.06 378.929 63.4911 382.893 64.3529L383.955 59.4671C379.64 58.5289 375.262 58.06 370.824 58.06V63.06ZM382.893 64.3529C386.818 65.2061 390.298 66.5041 393.357 68.2279L395.812 63.8721C392.27 61.8759 388.311 60.4139 383.955 59.4671L382.893 64.3529ZM392.275 65.0913L385.885 80.4813L390.503 82.3987L396.893 67.0087L392.275 65.0913ZM389.312 79.2039C386.062 77.5786 382.872 76.3431 379.745 75.5136L378.463 80.3464C381.216 81.0769 384.087 82.1814 387.076 83.6761L389.312 79.2039ZM379.758 75.5169C376.682 74.6839 373.642 74.26 370.644 74.26V79.26C373.166 79.26 375.767 79.6161 378.451 80.3431L379.758 75.5169ZM370.644 74.26C368.493 74.26 366.599 74.4456 365.066 74.9054L366.503 79.6946C367.37 79.4344 368.715 79.26 370.644 79.26V74.26ZM365.066 74.9054C363.649 75.3304 362.288 75.9881 361.316 77.0676L365.032 80.4124C365.141 80.2919 365.519 79.9896 366.503 79.6946L365.066 74.9054ZM361.222 77.1783C360.413 78.1896 359.954 79.3927 359.954 80.72H364.954C364.954 80.6073 364.975 80.4904 365.126 80.3017L361.222 77.1783ZM359.954 80.72C359.954 83.0295 361.405 84.6124 363.184 85.5446L365.504 81.1154C365.11 80.909 364.979 80.7538 364.952 80.7162C364.94 80.7009 364.945 80.7042 364.951 80.722C364.957 80.7397 364.954 80.7432 364.954 80.72H359.954ZM363.269 85.5872C364.777 86.3049 366.639 86.8659 368.79 87.3086L369.798 82.4114C367.869 82.0141 366.432 81.5551 365.419 81.0728L363.269 85.5872ZM368.804 87.3114C370.908 87.7323 373.192 88.1831 375.655 88.6637L376.613 83.7563C374.156 83.2769 371.88 82.8277 369.784 82.4085L368.804 87.3114ZM375.666 88.6658C378.07 89.1236 380.446 89.7533 382.796 90.5559L384.412 85.8241C381.842 84.9467 379.239 84.2564 376.602 83.7542L375.666 88.6658ZM382.796 90.5559C385.058 91.3282 387.107 92.3417 388.953 93.5907L391.755 89.4493C389.521 87.9383 387.07 86.7318 384.412 85.8241L382.796 90.5559ZM388.981 93.6093C390.745 94.7681 392.152 96.2729 393.22 98.154L397.568 95.686C396.116 93.1271 394.164 91.0319 391.727 89.4307L388.981 93.6093ZM393.22 98.154C394.213 99.9032 394.784 102.209 394.784 105.2H399.784C399.784 101.591 399.096 98.3768 397.568 95.686L393.22 98.154ZM394.784 105.2C394.784 108.523 393.834 111.573 391.892 114.407L396.017 117.233C398.515 113.587 399.784 109.557 399.784 105.2H394.784ZM391.886 114.415C390.037 117.138 387.195 119.453 383.193 121.287L385.276 125.833C389.913 123.707 393.552 120.862 396.022 117.225L391.886 114.415ZM383.219 121.275C379.316 123.01 374.26 123.94 367.944 123.94V128.94C374.708 128.94 380.512 127.95 385.25 125.845L383.219 121.275ZM416.406 125H413.906V127.5H416.406V125ZM416.406 78.47H418.906V75.97H416.406V78.47ZM397.956 78.47H395.456V80.97H397.956V78.47ZM397.956 62V59.5H395.456V62H397.956ZM456.096 62H458.596V59.5H456.096V62ZM456.096 78.47V80.97H458.596V78.47H456.096ZM437.646 78.47V75.97H435.146V78.47H437.646ZM437.646 125V127.5H440.146V125H437.646ZM418.906 125V78.47H413.906V125H418.906ZM416.406 75.97H397.956V80.97H416.406V75.97ZM400.456 78.47V62H395.456V78.47H400.456ZM397.956 64.5H456.096V59.5H397.956V64.5ZM453.596 62V78.47H458.596V62H453.596ZM456.096 75.97H437.646V80.97H456.096V75.97ZM435.146 78.47V125H440.146V78.47H435.146ZM437.646 122.5H416.406V127.5H437.646V122.5ZM40.924 184H38.424V186.5H40.924V184ZM40.924 121V118.5H38.424V121H40.924ZM86.4639 123.88L85.4367 126.159L85.4486 126.165L86.4639 123.88ZM96.4539 132.16L94.3578 133.522L94.3631 133.531L94.3684 133.539L96.4539 132.16ZM96.4539 157.36L94.3684 155.981L96.4539 157.36ZM86.4639 165.64L87.4912 167.919L87.4984 167.916L87.5056 167.913L86.4639 165.64ZM52.7139 168.52L50.9808 166.718L46.5087 171.02H52.7139V168.52ZM62.1639 159.43H64.6639V153.556L60.4308 157.628L62.1639 159.43ZM62.1639 184V186.5H64.6639V184H62.1639ZM62.1639 161.77L60.3796 163.521L64.6639 167.887V161.77H62.1639ZM52.7139 152.14V149.64H46.758L50.9296 153.891L52.7139 152.14ZM76.3839 150.16L74.6946 148.317L74.6751 148.335L74.6559 148.353L76.3839 150.16ZM76.3839 139.36L74.6559 141.167L74.6751 141.185L74.6946 141.203L76.3839 139.36ZM52.7139 137.38L50.9296 135.629L46.758 139.88H52.7139V137.38ZM62.1639 127.75H64.6639V121.633L60.3796 125.999L62.1639 127.75ZM43.424 184V121H38.424V184H43.424ZM40.924 123.5H71.254V118.5H40.924V123.5ZM71.254 123.5C76.8684 123.5 81.5717 124.417 85.4367 126.159L87.4912 121.601C82.8362 119.503 77.3995 118.5 71.254 118.5V123.5ZM85.4486 126.165C89.3731 127.909 92.3077 130.368 94.3578 133.522L98.5501 130.798C95.9202 126.752 92.1948 123.691 87.4793 121.595L85.4486 126.165ZM94.3684 133.539C96.4003 136.613 97.4639 140.317 97.4639 144.76H102.464C102.464 139.483 101.188 134.787 98.5395 130.781L94.3684 133.539ZM97.4639 144.76C97.4639 149.203 96.4003 152.907 94.3684 155.981L98.5395 158.739C101.188 154.733 102.464 150.037 102.464 144.76H97.4639ZM94.3684 155.981C92.316 159.086 89.37 161.558 85.4223 163.367L87.5056 167.913C92.1979 165.762 95.9119 162.714 98.5395 158.739L94.3684 155.981ZM85.4367 163.361C81.5717 165.103 76.8684 166.02 71.254 166.02V171.02C77.3995 171.02 82.8362 170.017 87.4912 167.919L85.4367 163.361ZM71.254 166.02H52.7139V171.02H71.254V166.02ZM54.4471 170.322L63.8971 161.232L60.4308 157.628L50.9808 166.718L54.4471 170.322ZM59.6639 159.43V184H64.6639V159.43H59.6639ZM62.1639 181.5H40.924V186.5H62.1639V181.5ZM63.9483 160.019L54.4983 150.389L50.9296 153.891L60.3796 163.521L63.9483 160.019ZM52.7139 154.64H69.9039V149.64H52.7139V154.64ZM69.9039 154.64C73.1503 154.64 76.0697 153.92 78.112 151.967L74.6559 148.353C73.9382 149.04 72.5376 149.64 69.9039 149.64V154.64ZM78.0733 152.003C80.1174 150.129 81.0439 147.613 81.0439 144.76H76.0439C76.0439 146.467 75.5305 147.551 74.6946 148.317L78.0733 152.003ZM81.0439 144.76C81.0439 141.907 80.1174 139.391 78.0733 137.517L74.6946 141.203C75.5305 141.969 76.0439 143.053 76.0439 144.76H81.0439ZM78.112 137.553C76.0697 135.6 73.1503 134.88 69.9039 134.88V139.88C72.5376 139.88 73.9382 140.48 74.6559 141.167L78.112 137.553ZM69.9039 134.88H52.7139V139.88H69.9039V134.88ZM54.4983 139.131L63.9483 129.501L60.3796 125.999L50.9296 135.629L54.4983 139.131ZM59.6639 127.75V161.77H64.6639V127.75H59.6639ZM106.93 184H104.43V186.5H106.93V184ZM106.93 121V118.5H104.43V121H106.93ZM128.17 121H130.67V118.5H128.17V121ZM128.17 167.53H125.67V170.03H128.17V167.53ZM156.61 167.53H159.11V165.03H156.61V167.53ZM156.61 184V186.5H159.11V184H156.61ZM109.43 184V121H104.43V184H109.43ZM106.93 123.5H128.17V118.5H106.93V123.5ZM125.67 121V167.53H130.67V121H125.67ZM128.17 170.03H156.61V165.03H128.17V170.03ZM154.11 167.53V184H159.11V167.53H154.11ZM156.61 181.5H106.93V186.5H156.61V181.5ZM156.516 184L154.225 182.999L152.694 186.5H156.516V184ZM184.056 121V118.5H182.42L181.765 119.999L184.056 121ZM204.936 121L207.226 119.999L206.571 118.5H204.936V121ZM232.476 184V186.5H236.297L234.766 182.999L232.476 184ZM210.516 184L208.182 184.897L208.798 186.5H210.516V184ZM190.176 131.08V128.58H186.536L187.842 131.977L190.176 131.08ZM198.456 131.08L200.789 131.977L202.095 128.58H198.456V131.08ZM178.116 184V186.5H179.833L180.449 184.897L178.116 184ZM172.896 173.02L170.538 172.188L169.362 175.52H172.896V173.02ZM178.296 157.72V155.22H176.527L175.938 156.888L178.296 157.72ZM207.276 157.72L209.633 156.888L209.044 155.22H207.276V157.72ZM212.676 173.02V175.52H216.209L215.033 172.188L212.676 173.02ZM158.806 185.001L186.346 122.001L181.765 119.999L154.225 182.999L158.806 185.001ZM184.056 123.5H204.936V118.5H184.056V123.5ZM202.645 122.001L230.185 185.001L234.766 182.999L207.226 119.999L202.645 122.001ZM232.476 181.5H210.516V186.5H232.476V181.5ZM212.849 183.103L192.509 130.183L187.842 131.977L208.182 184.897L212.849 183.103ZM190.176 133.58H198.456V128.58H190.176V133.58ZM196.122 130.183L175.782 183.103L180.449 184.897L200.789 131.977L196.122 130.183ZM178.116 181.5H156.516V186.5H178.116V181.5ZM175.253 173.852L180.653 158.552L175.938 156.888L170.538 172.188L175.253 173.852ZM178.296 160.22H207.276V155.22H178.296V160.22ZM204.918 158.552L210.318 173.852L215.033 172.188L209.633 156.888L204.918 158.552ZM212.676 170.52H172.896V175.52H212.676V170.52ZM248.022 184H245.522V186.5H248.022V184ZM248.022 156.37L250.357 155.476L245.522 156.37H248.022ZM252.882 169.06L250.734 170.339L255.217 168.166L252.882 169.06ZM224.262 121V118.5H219.864L222.114 122.279L224.262 121ZM246.672 121L248.826 119.731L248.101 118.5H246.672V121ZM266.022 153.85V156.35H270.396L268.176 152.581L266.022 153.85ZM252.972 153.85L250.823 152.572L248.578 156.35H252.972V153.85ZM272.502 121V118.5H271.08L270.353 119.722L272.502 121ZM293.022 121L295.174 122.273L297.407 118.5H293.022V121ZM264.582 169.06L262.237 168.195L266.734 170.333L264.582 169.06ZM269.262 156.37H271.762L266.917 155.505L269.262 156.37ZM269.262 184V186.5H271.762V184H269.262ZM250.522 184V156.37H245.522V184H250.522ZM245.688 157.264L250.548 169.954L255.217 168.166L250.357 155.476L245.688 157.264ZM255.03 167.781L226.41 119.721L222.114 122.279L250.734 170.339L255.03 167.781ZM224.262 123.5H246.672V118.5H224.262V123.5ZM244.518 122.269L263.868 155.119L268.176 152.581L248.826 119.731L244.518 122.269ZM266.022 151.35H252.972V156.35H266.022V151.35ZM255.121 155.128L274.651 122.278L270.353 119.722L250.823 152.572L255.121 155.128ZM272.502 123.5H293.022V118.5H272.502V123.5ZM290.871 119.727L262.431 167.787L266.734 170.333L295.174 122.273L290.871 119.727ZM266.928 169.925L271.608 157.235L266.917 155.505L262.237 168.195L266.928 169.925ZM266.762 156.37V184H271.762V156.37H266.762ZM269.262 181.5H248.022V186.5H269.262V181.5ZM315.159 144.4V141.9H312.659V144.4H315.159ZM343.239 144.4H345.739V141.9H343.239V144.4ZM343.239 159.7V162.2H345.739V159.7H343.239ZM315.159 159.7H312.659V162.2H315.159V159.7ZM316.599 167.98H314.099V170.48H316.599V167.98ZM348.099 167.98H350.599V165.48H348.099V167.98ZM348.099 184V186.5H350.599V184H348.099ZM295.719 184H293.219V186.5H295.719V184ZM295.719 121V118.5H293.219V121H295.719ZM346.929 121H349.429V118.5H346.929V121ZM346.929 137.02V139.52H349.429V137.02H346.929ZM316.599 137.02V134.52H314.099V137.02H316.599ZM315.159 146.9H343.239V141.9H315.159V146.9ZM340.739 144.4V159.7H345.739V144.4H340.739ZM343.239 157.2H315.159V162.2H343.239V157.2ZM317.659 159.7V144.4H312.659V159.7H317.659ZM316.599 170.48H348.099V165.48H316.599V170.48ZM345.599 167.98V184H350.599V167.98H345.599ZM348.099 181.5H295.719V186.5H348.099V181.5ZM298.219 184V121H293.219V184H298.219ZM295.719 123.5H346.929V118.5H295.719V123.5ZM344.429 121V137.02H349.429V121H344.429ZM346.929 134.52H316.599V139.52H346.929V134.52ZM314.099 137.02V167.98H319.099V137.02H314.099ZM356.276 184H353.776V186.5H356.276V184ZM356.276 121V118.5H353.776V121H356.276ZM401.815 123.88L400.788 126.159L400.8 126.165L401.815 123.88ZM411.805 132.16L409.709 133.522L409.715 133.531L409.72 133.539L411.805 132.16ZM411.805 157.36L413.88 158.755L413.886 158.747L413.891 158.739L411.805 157.36ZM401.815 165.37L400.827 163.074L400.815 163.079L401.815 165.37ZM368.065 168.16L366.369 166.324L361.675 170.66H368.065V168.16ZM377.516 159.43H380.016V153.717L375.819 157.594L377.516 159.43ZM377.516 184V186.5H380.016V184H377.516ZM393.986 184L391.913 185.398L392.656 186.5H393.986V184ZM378.505 161.05V158.55H373.804L376.433 162.448L378.505 161.05ZM401.005 161.05L403.071 159.641L402.326 158.55H401.005V161.05ZM416.666 184V186.5H421.398L418.731 182.591L416.666 184ZM377.516 161.77L375.731 163.521L380.016 167.887V161.77H377.516ZM368.065 152.14V149.64H362.11L366.281 153.891L368.065 152.14ZM391.736 150.16L390.046 148.317L390.027 148.335L390.007 148.353L391.736 150.16ZM391.736 139.36L390.007 141.167L390.027 141.185L390.046 141.203L391.736 139.36ZM368.065 137.38L366.281 135.629L362.11 139.88H368.065V137.38ZM377.516 127.75H380.016V121.633L375.731 125.999L377.516 127.75ZM358.776 184V121H353.776V184H358.776ZM356.276 123.5H386.606V118.5H356.276V123.5ZM386.606 123.5C392.22 123.5 396.923 124.417 400.788 126.159L402.843 121.601C398.188 119.503 392.751 118.5 386.606 118.5V123.5ZM400.8 126.165C404.725 127.909 407.659 130.368 409.709 133.522L413.902 130.798C411.272 126.752 407.546 123.691 402.831 121.595L400.8 126.165ZM409.72 133.539C411.752 136.613 412.815 140.317 412.815 144.76H417.815C417.815 139.483 416.539 134.787 413.891 130.781L409.72 133.539ZM412.815 144.76C412.815 149.203 411.752 152.907 409.72 155.981L413.891 158.739C416.539 154.733 417.815 150.037 417.815 144.76H412.815ZM409.731 155.965C407.691 158.999 404.761 161.38 400.827 163.074L402.804 167.666C407.51 165.64 411.24 162.681 413.88 158.755L409.731 155.965ZM400.815 163.079C396.942 164.77 392.229 165.66 386.606 165.66V170.66C392.742 170.66 398.169 169.69 402.816 167.661L400.815 163.079ZM386.606 165.66H368.065V170.66H386.606V165.66ZM369.762 169.996L379.212 161.266L375.819 157.594L366.369 166.324L369.762 169.996ZM375.016 159.43V184H380.016V159.43H375.016ZM377.516 181.5H356.276V186.5H377.516V181.5ZM396.058 182.602L380.578 159.652L376.433 162.448L391.913 185.398L396.058 182.602ZM378.505 163.55H401.005V158.55H378.505V163.55ZM398.94 162.459L414.6 185.409L418.731 182.591L403.071 159.641L398.94 162.459ZM416.666 181.5H393.986V186.5H416.666V181.5ZM379.3 160.019L369.85 150.389L366.281 153.891L375.731 163.521L379.3 160.019ZM368.065 154.64H385.255V149.64H368.065V154.64ZM385.255 154.64C388.502 154.64 391.421 153.92 393.464 151.967L390.007 148.353C389.29 149.04 387.889 149.64 385.255 149.64V154.64ZM393.425 152.003C395.469 150.129 396.396 147.613 396.396 144.76H391.396C391.396 146.467 390.882 147.551 390.046 148.317L393.425 152.003ZM396.396 144.76C396.396 141.907 395.469 139.391 393.425 137.517L390.046 141.203C390.882 141.969 391.396 143.053 391.396 144.76H396.396ZM393.464 137.553C391.421 135.6 388.502 134.88 385.255 134.88V139.88C387.889 139.88 389.29 140.48 390.007 141.167L393.464 137.553ZM385.255 134.88H368.065V139.88H385.255V134.88ZM369.85 139.131L379.3 129.501L375.731 125.999L366.281 135.629L369.85 139.131ZM375.016 127.75V161.77H380.016V127.75H375.016Z" fill="black" mask="url(#path-1-outside-1_4_115)"/>
</svg>
